<?xml version="1.0" encoding="UTF-8" standalone="no"?>
<!DOCTYPE svg PUBLIC "-//W3C//DTD SVG 1.1//EN"
 "http://www.w3.org/Graphics/SVG/1.1/DTD/svg11.dtd">
<!-- Generated by graphviz version 2.43.0 (0)
 -->
<!-- Title: G Pages: 1 -->
<svg width="1664pt" height="799pt"
 viewBox="0.00 0.00 1664.00 799.00" xmlns="http://www.w3.org/2000/svg" xmlns:xlink="http://www.w3.org/1999/xlink">
<g id="graph0" class="graph" transform="scale(1 1) rotate(0) translate(4 795)">
<title>G</title>
<polygon fill="white" stroke="transparent" points="-4,4 -4,-795 1660,-795 1660,4 -4,4"/>
<g id="clust1" class="cluster">
<title>cluster_root</title>
<g id="a_clust1"><a xlink:title="eventq_index=0&#10;full_system=false&#10;sim_quantum=0&#10;time_sync_enable=false&#10;time_sync_period=100000000000&#10;time_sync_spin_threshold=100000000">
<path fill="#bab6ae" stroke="#000000" d="M20,-8C20,-8 1636,-8 1636,-8 1642,-8 1648,-14 1648,-20 1648,-20 1648,-771 1648,-771 1648,-777 1642,-783 1636,-783 1636,-783 20,-783 20,-783 14,-783 8,-777 8,-771 8,-771 8,-20 8,-20 8,-14 14,-8 20,-8"/>
<text text-anchor="middle" x="828" y="-767.8" font-family="Arial" font-size="14.00" fill="#000000">root </text>
<text text-anchor="middle" x="828" y="-752.8" font-family="Arial" font-size="14.00" fill="#000000">: Root</text>
</a>
</g>
</g>
<g id="clust2" class="cluster">
<title>cluster_system</title>
<g id="a_clust2"><a xlink:title="auto_unlink_shared_backstore=false&#10;cache_line_size=64&#10;eventq_index=0&#10;exit_on_work_items=false&#10;init_param=0&#10;m5ops_base=0&#10;mem_mode=timing&#10;mem_ranges=1073741824:9663676416&#10;memories=system.mem_ctrls.dram&#10;mmap_using_noreserve=false&#10;multi_thread=false&#10;&#10;um_work_ids=16&#10;&#13;eadfile=&#10;&#13;edirect_paths=system.redirect_paths0 system.redirect_paths1 system.redirect_paths2&#10;shadow_rom_ranges=&#10;shared_backstore=&#10;symbolfile=&#10;thermal_components=&#10;thermal_model=Null&#10;work_begin_ckpt_count=0&#10;work_begin_cpu_id_exit=&#45;1&#10;work_begin_exit_count=0&#10;work_cpus_ckpt_count=0&#10;work_end_ckpt_count=0&#10;work_end_exit_count=0&#10;work_item_id=&#45;1&#10;workload=system.workload">
<path fill="#e4e7eb" stroke="#000000" d="M28,-16C28,-16 1628,-16 1628,-16 1634,-16 1640,-22 1640,-28 1640,-28 1640,-725 1640,-725 1640,-731 1634,-737 1628,-737 1628,-737 28,-737 28,-737 22,-737 16,-731 16,-725 16,-725 16,-28 16,-28 16,-22 22,-16 28,-16"/>
<text text-anchor="middle" x="828" y="-721.8" font-family="Arial" font-size="14.00" fill="#000000">system </text>
<text text-anchor="middle" x="828" y="-706.8" font-family="Arial" font-size="14.00" fill="#000000">: System</text>
</a>
</g>
</g>
<g id="clust4" class="cluster">
<title>cluster_system_iobus</title>
<g id="a_clust4"><a xlink:title="clk_domain=system.clk_domain&#10;eventq_index=0&#10;forward_latency=1&#10;frontend_latency=2&#10;header_latency=1&#10;power_model=&#10;power_state=system.iobus.power_state&#10;&#13;esponse_latency=2&#10;use_default_range=false&#10;width=16">
<path fill="#6f798c" stroke="#000000" d="M460,-155C460,-155 696,-155 696,-155 702,-155 708,-161 708,-167 708,-167 708,-234 708,-234 708,-240 702,-246 696,-246 696,-246 460,-246 460,-246 454,-246 448,-240 448,-234 448,-234 448,-167 448,-167 448,-161 454,-155 460,-155"/>
<text text-anchor="middle" x="578" y="-230.8" font-family="Arial" font-size="14.00" fill="#000000">iobus </text>
<text text-anchor="middle" x="578" y="-215.8" font-family="Arial" font-size="14.00" fill="#000000">: IOXBar</text>
</a>
</g>
</g>
<g id="clust6" class="cluster">
<title>cluster_system_membus</title>
<g id="a_clust6"><a xlink:title="clk_domain=system.clk_domain&#10;eventq_index=0&#10;forward_latency=4&#10;frontend_latency=3&#10;header_latency=1&#10;max_outstanding_snoops=512&#10;max_routing_table_size=512&#10;point_of_coherency=true&#10;point_of_unification=true&#10;power_model=&#10;power_state=system.membus.power_state&#10;&#13;esponse_latency=2&#10;snoop_filter=system.membus.snoop_filter&#10;snoop_response_latency=4&#10;system=system&#10;use_default_range=false&#10;width=16">
<path fill="#6f798c" stroke="#000000" d="M36,-278C36,-278 348,-278 348,-278 354,-278 360,-284 360,-290 360,-290 360,-496 360,-496 360,-502 354,-508 348,-508 348,-508 36,-508 36,-508 30,-508 24,-502 24,-496 24,-496 24,-290 24,-290 24,-284 30,-278 36,-278"/>
<text text-anchor="middle" x="192" y="-492.8" font-family="Arial" font-size="14.00" fill="#000000">membus </text>
<text text-anchor="middle" x="192" y="-477.8" font-family="Arial" font-size="14.00" fill="#000000">: MemBus</text>
</a>
</g>
</g>
<g id="clust7" class="cluster">
<title>cluster_system_membus_badaddr_responder</title>
<g id="a_clust7"><a xlink:title="clk_domain=system.clk_domain&#10;eventq_index=0&#10;fake_mem=false&#10;pio_addr=0&#10;pio_latency=100000&#10;pio_size=8&#10;power_model=&#10;power_state=system.membus.badaddr_responder.power_state&#10;&#13;et_bad_addr=true&#10;&#13;et_data16=65535&#10;&#13;et_data32=4294967295&#10;&#13;et_data64=18446744073709551615&#10;&#13;et_data8=255&#10;system=system&#10;update_data=false&#10;warn_access=">
<path fill="#c7a793" stroke="#000000" d="M44,-286C44,-286 158,-286 158,-286 164,-286 170,-292 170,-298 170,-298 170,-365 170,-365 170,-371 164,-377 158,-377 158,-377 44,-377 44,-377 38,-377 32,-371 32,-365 32,-365 32,-298 32,-298 32,-292 38,-286 44,-286"/>
<text text-anchor="middle" x="101" y="-361.8" font-family="Arial" font-size="14.00" fill="#000000">badaddr_responder </text>
<text text-anchor="middle" x="101" y="-346.8" font-family="Arial" font-size="14.00" fill="#000000">: BadAddr</text>
</a>
</g>
</g>
<g id="clust11" class="cluster">
<title>cluster_system_bridge</title>
<g id="a_clust11"><a xlink:title="clk_domain=system.clk_domain&#10;delay=50000&#10;eventq_index=0&#10;power_model=&#10;power_state=system.bridge.power_state&#10;&#13;anges=268435456:268435464&#10;&#13;eq_size=16&#10;&#13;esp_size=16">
<path fill="#bab6ae" stroke="#000000" d="M260,-24C260,-24 482,-24 482,-24 488,-24 494,-30 494,-36 494,-36 494,-103 494,-103 494,-109 488,-115 482,-115 482,-115 260,-115 260,-115 254,-115 248,-109 248,-103 248,-103 248,-36 248,-36 248,-30 254,-24 260,-24"/>
<text text-anchor="middle" x="371" y="-99.8" font-family="Arial" font-size="14.00" fill="#000000">bridge </text>
<text text-anchor="middle" x="371" y="-84.8" font-family="Arial" font-size="14.00" fill="#000000">: Bridge</text>
</a>
</g>
</g>
<g id="clust17" class="cluster">
<title>cluster_system_cpu</title>
<g id="a_clust17"><a xlink:title="LFSTSize=1024&#10;LQEntries=32&#10;LSQCheckLoads=true&#10;LSQDepCheckShift=4&#10;SQEntries=32&#10;SSITSize=1024&#10;activity=0&#10;backComSize=5&#10;branchPred=system.cpu.branchPred&#10;cacheLoadPorts=200&#10;cacheStorePorts=200&#10;checker=Null&#10;clk_domain=system.cpu_clk_domain&#10;commitToDecodeDelay=1&#10;commitToFetchDelay=1&#10;commitToIEWDelay=1&#10;commitToRenameDelay=1&#10;commitWidth=4&#10;cpu_id=0&#10;decodeToFetchDelay=1&#10;decodeToRenameDelay=1&#10;decodeWidth=4&#10;decoder=system.cpu.decoder&#10;dispatchWidth=4&#10;do_checkpoint_insts=true&#10;do_statistics_insts=true&#10;eventq_index=0&#10;fetchBufferSize=64&#10;fetchQueueSize=32&#10;fetchToDecodeDelay=4&#10;fetchTrapLatency=1&#10;fetchWidth=8&#10;forwardComSize=5&#10;fuPool=system.cpu.fuPool&#10;function_trace=false&#10;function_trace_start=0&#10;iewToCommitDelay=1&#10;iewToDecodeDelay=1&#10;iewToFetchDelay=1&#10;iewToRenameDelay=1&#10;interrupts=system.cpu.interrupts&#10;isa=system.cpu.isa&#10;issueToExecuteDelay=1&#10;issueWidth=4&#10;max_insts_all_threads=0&#10;max_insts_any_thread=0&#10;mmu=system.cpu.mmu&#10;&#10;eedsTSO=false&#10;&#10;umIQEntries=32&#10;&#10;umPhysCCRegs=0&#10;&#10;umPhysFloatRegs=128&#10;&#10;umPhysIntRegs=128&#10;&#10;umPhysVecPredRegs=6&#10;&#10;umPhysVecRegs=48&#10;&#10;umROBEntries=128&#10;&#10;umRobs=1&#10;&#10;umThreads=1&#10;power_gating_on_idle=false&#10;power_model=&#10;power_state=system.cpu.power_state&#10;progress_interval=0&#10;pwr_gating_latency=300&#10;&#13;enameToDecodeDelay=1&#10;&#13;enameToFetchDelay=1&#10;&#13;enameToIEWDelay=2&#10;&#13;enameToROBDelay=1&#10;&#13;enameWidth=4&#10;simpoint_start_insts=&#10;smtCommitPolicy=RoundRobin&#10;smtFetchPolicy=RoundRobin&#10;smtIQPolicy=Partitioned&#10;smtIQThreshold=100&#10;smtLSQPolicy=Partitioned&#10;smtLSQThreshold=100&#10;smtNumFetchingThreads=1&#10;smtROBPolicy=Partitioned&#10;smtROBThreshold=100&#10;socket_id=0&#10;squashWidth=4&#10;store_set_clear_period=250000&#10;switched_out=false&#10;syscallRetryLatency=10000&#10;system=system&#10;tracer=system.cpu.tracer&#10;trapLatency=10&#10;wbWidth=4&#10;workload=system.cpu.workload">
<path fill="#bbc6d9" stroke="#000000" d="M860,-278C860,-278 1620,-278 1620,-278 1626,-278 1632,-284 1632,-290 1632,-290 1632,-634 1632,-634 1632,-640 1626,-646 1620,-646 1620,-646 860,-646 860,-646 854,-646 848,-640 848,-634 848,-634 848,-290 848,-290 848,-284 854,-278 860,-278"/>
<text text-anchor="middle" x="1240" y="-630.8" font-family="Arial" font-size="14.00" fill="#000000">cpu </text>
<text text-anchor="middle" x="1240" y="-615.8" font-family="Arial" font-size="14.00" fill="#000000">: RiscvO3CPU</text>
</a>
</g>
</g>
<g id="clust18" class="cluster">
<title>cluster_system_cpu_mmu</title>
<g id="a_clust18"><a xlink:title="dtb=system.cpu.mmu.dtb&#10;eventq_index=0&#10;itb=system.cpu.mmu.itb&#10;pma_checker=system.cpu.mmu.pma_checker&#10;pmp=system.cpu.mmu.pmp">
<path fill="#bab6ae" stroke="#000000" d="M1260,-401C1260,-401 1612,-401 1612,-401 1618,-401 1624,-407 1624,-413 1624,-413 1624,-588 1624,-588 1624,-594 1618,-600 1612,-600 1612,-600 1260,-600 1260,-600 1254,-600 1248,-594 1248,-588 1248,-588 1248,-413 1248,-413 1248,-407 1254,-401 1260,-401"/>
<text text-anchor="middle" x="1436" y="-584.8" font-family="Arial" font-size="14.00" fill="#000000">mmu </text>
<text text-anchor="middle" x="1436" y="-569.8" font-family="Arial" font-size="14.00" fill="#000000">: RiscvMMU</text>
</a>
</g>
</g>
<g id="clust19" class="cluster">
<title>cluster_system_cpu_mmu_itb</title>
<g id="a_clust19"><a xlink:title="entry_type=instruction&#10;eventq_index=0&#10;&#10;ext_level=Null&#10;pma_checker=system.cpu.mmu.pma_checker&#10;pmp=system.cpu.mmu.pmp&#10;size=64&#10;walker=system.cpu.mmu.itb.walker">
<path fill="#9f9c95" stroke="#000000" d="M1268,-409C1268,-409 1420,-409 1420,-409 1426,-409 1432,-415 1432,-421 1432,-421 1432,-542 1432,-542 1432,-548 1426,-554 1420,-554 1420,-554 1268,-554 1268,-554 1262,-554 1256,-548 1256,-542 1256,-542 1256,-421 1256,-421 1256,-415 1262,-409 1268,-409"/>
<text text-anchor="middle" x="1344" y="-538.8" font-family="Arial" font-size="14.00" fill="#000000">itb </text>
<text text-anchor="middle" x="1344" y="-523.8" font-family="Arial" font-size="14.00" fill="#000000">: RiscvTLB</text>
</a>
</g>
</g>
<g id="clust20" class="cluster">
<title>cluster_system_cpu_mmu_itb_walker</title>
<g id="a_clust20"><a xlink:title="clk_domain=system.cpu_clk_domain&#10;eventq_index=0&#10;&#10;um_squash_per_cycle=4&#10;pma_checker=system.cpu.mmu.pma_checker&#10;pmp=system.cpu.mmu.pmp&#10;power_model=&#10;power_state=system.cpu.mmu.itb.walker.power_state&#10;system=system">
<path fill="#84827c" stroke="#000000" d="M1276,-417C1276,-417 1412,-417 1412,-417 1418,-417 1424,-423 1424,-429 1424,-429 1424,-496 1424,-496 1424,-502 1418,-508 1412,-508 1412,-508 1276,-508 1276,-508 1270,-508 1264,-502 1264,-496 1264,-496 1264,-429 1264,-429 1264,-423 1270,-417 1276,-417"/>
<text text-anchor="middle" x="1344" y="-492.8" font-family="Arial" font-size="14.00" fill="#000000">walker </text>
<text text-anchor="middle" x="1344" y="-477.8" font-family="Arial" font-size="14.00" fill="#000000">: RiscvPagetableWalker</text>
</a>
</g>
</g>
<g id="clust22" class="cluster">
<title>cluster_system_cpu_mmu_dtb</title>
<g id="a_clust22"><a xlink:title="entry_type=data&#10;eventq_index=0&#10;&#10;ext_level=Null&#10;pma_checker=system.cpu.mmu.pma_checker&#10;pmp=system.cpu.mmu.pmp&#10;size=64&#10;walker=system.cpu.mmu.dtb.walker">
<path fill="#9f9c95" stroke="#000000" d="M1452,-409C1452,-409 1604,-409 1604,-409 1610,-409 1616,-415 1616,-421 1616,-421 1616,-542 1616,-542 1616,-548 1610,-554 1604,-554 1604,-554 1452,-554 1452,-554 1446,-554 1440,-548 1440,-542 1440,-542 1440,-421 1440,-421 1440,-415 1446,-409 1452,-409"/>
<text text-anchor="middle" x="1528" y="-538.8" font-family="Arial" font-size="14.00" fill="#000000">dtb </text>
<text text-anchor="middle" x="1528" y="-523.8" font-family="Arial" font-size="14.00" fill="#000000">: RiscvTLB</text>
</a>
</g>
</g>
<g id="clust23" class="cluster">
<title>cluster_system_cpu_mmu_dtb_walker</title>
<g id="a_clust23"><a xlink:title="clk_domain=system.cpu_clk_domain&#10;eventq_index=0&#10;&#10;um_squash_per_cycle=4&#10;pma_checker=system.cpu.mmu.pma_checker&#10;pmp=system.cpu.mmu.pmp&#10;power_model=&#10;power_state=system.cpu.mmu.dtb.walker.power_state&#10;system=system">
<path fill="#84827c" stroke="#000000" d="M1460,-417C1460,-417 1596,-417 1596,-417 1602,-417 1608,-423 1608,-429 1608,-429 1608,-496 1608,-496 1608,-502 1602,-508 1596,-508 1596,-508 1460,-508 1460,-508 1454,-508 1448,-502 1448,-496 1448,-496 1448,-429 1448,-429 1448,-423 1454,-417 1460,-417"/>
<text text-anchor="middle" x="1528" y="-492.8" font-family="Arial" font-size="14.00" fill="#000000">walker </text>
<text text-anchor="middle" x="1528" y="-477.8" font-family="Arial" font-size="14.00" fill="#000000">: RiscvPagetableWalker</text>
</a>
</g>
</g>
<g id="clust92" class="cluster">
<title>cluster_system_cpu_icache</title>
<g id="a_clust92"><a xlink:title="addr_ranges=0:18446744073709551615&#10;assoc=8&#10;clk_domain=system.cpu_clk_domain&#10;clusivity=mostly_incl&#10;compressor=Null&#10;data_latency=2&#10;demand_mshr_reserve=1&#10;eventq_index=0&#10;is_read_only=true&#10;max_miss_count=0&#10;move_contractions=true&#10;mshrs=8&#10;power_model=&#10;power_state=system.cpu.icache.power_state&#10;prefetch_on_access=false&#10;prefetch_on_pf_hit=false&#10;prefetcher=system.cpu.icache.prefetcher&#10;&#13;eplace_expansions=true&#10;&#13;eplacement_policy=system.cpu.icache.replacement_policy&#10;&#13;esponse_latency=2&#10;sequential_access=false&#10;size=32768&#10;system=system&#10;tag_latency=2&#10;tags=system.cpu.icache.tags&#10;tgts_per_mshr=20&#10;warmup_percentage=0&#10;write_allocator=Null&#10;write_buffers=8&#10;writeback_clean=true">
<path fill="#bab6ae" stroke="#000000" d="M1062,-286C1062,-286 1224,-286 1224,-286 1230,-286 1236,-292 1236,-298 1236,-298 1236,-365 1236,-365 1236,-371 1230,-377 1224,-377 1224,-377 1062,-377 1062,-377 1056,-377 1050,-371 1050,-365 1050,-365 1050,-298 1050,-298 1050,-292 1056,-286 1062,-286"/>
<text text-anchor="middle" x="1143" y="-361.8" font-family="Arial" font-size="14.00" fill="#000000">icache </text>
<text text-anchor="middle" x="1143" y="-346.8" font-family="Arial" font-size="14.00" fill="#000000">: L1_ICache</text>
</a>
</g>
</g>
<g id="clust100" class="cluster">
<title>cluster_system_cpu_dcache</title>
<g id="a_clust100"><a xlink:title="addr_ranges=0:18446744073709551615&#10;assoc=8&#10;clk_domain=system.cpu_clk_domain&#10;clusivity=mostly_incl&#10;compressor=Null&#10;data_latency=2&#10;demand_mshr_reserve=1&#10;eventq_index=0&#10;is_read_only=false&#10;max_miss_count=0&#10;move_contractions=true&#10;mshrs=8&#10;power_model=&#10;power_state=system.cpu.dcache.power_state&#10;prefetch_on_access=false&#10;prefetch_on_pf_hit=false&#10;prefetcher=system.cpu.dcache.prefetcher&#10;&#13;eplace_expansions=true&#10;&#13;eplacement_policy=system.cpu.dcache.replacement_policy&#10;&#13;esponse_latency=2&#10;sequential_access=false&#10;size=32768&#10;system=system&#10;tag_latency=2&#10;tags=system.cpu.dcache.tags&#10;tgts_per_mshr=20&#10;warmup_percentage=0&#10;write_allocator=Null&#10;write_buffers=8&#10;writeback_clean=false">
<path fill="#bab6ae" stroke="#000000" d="M868,-286C868,-286 1030,-286 1030,-286 1036,-286 1042,-292 1042,-298 1042,-298 1042,-365 1042,-365 1042,-371 1036,-377 1030,-377 1030,-377 868,-377 868,-377 862,-377 856,-371 856,-365 856,-365 856,-298 856,-298 856,-292 862,-286 868,-286"/>
<text text-anchor="middle" x="949" y="-361.8" font-family="Arial" font-size="14.00" fill="#000000">dcache </text>
<text text-anchor="middle" x="949" y="-346.8" font-family="Arial" font-size="14.00" fill="#000000">: L1_DCache</text>
</a>
</g>
</g>
<g id="clust108" class="cluster">
<title>cluster_system_cpu_itb_walker_cache</title>
<g id="a_clust108"><a xlink:title="addr_ranges=0:18446744073709551615&#10;assoc=32&#10;clk_domain=system.cpu_clk_domain&#10;clusivity=mostly_incl&#10;compressor=Null&#10;data_latency=2&#10;demand_mshr_reserve=1&#10;eventq_index=0&#10;is_read_only=false&#10;max_miss_count=0&#10;move_contractions=true&#10;mshrs=8&#10;power_model=&#10;power_state=system.cpu.itb_walker_cache.power_state&#10;prefetch_on_access=false&#10;prefetch_on_pf_hit=false&#10;prefetcher=Null&#10;&#13;eplace_expansions=true&#10;&#13;eplacement_policy=system.cpu.itb_walker_cache.replacement_policy&#10;&#13;esponse_latency=2&#10;sequential_access=false&#10;size=2048&#10;system=system&#10;tag_latency=2&#10;tags=system.cpu.itb_walker_cache.tags&#10;tgts_per_mshr=12&#10;warmup_percentage=0&#10;write_allocator=Null&#10;write_buffers=8&#10;writeback_clean=false">
<path fill="#bab6ae" stroke="#000000" d="M1256,-286C1256,-286 1418,-286 1418,-286 1424,-286 1430,-292 1430,-298 1430,-298 1430,-365 1430,-365 1430,-371 1424,-377 1418,-377 1418,-377 1256,-377 1256,-377 1250,-377 1244,-371 1244,-365 1244,-365 1244,-298 1244,-298 1244,-292 1250,-286 1256,-286"/>
<text text-anchor="middle" x="1337" y="-361.8" font-family="Arial" font-size="14.00" fill="#000000">itb_walker_cache </text>
<text text-anchor="middle" x="1337" y="-346.8" font-family="Arial" font-size="14.00" fill="#000000">: PageTableWalkerCache</text>
</a>
</g>
</g>
<g id="clust114" class="cluster">
<title>cluster_system_cpu_dtb_walker_cache</title>
<g id="a_clust114"><a xlink:title="addr_ranges=0:18446744073709551615&#10;assoc=32&#10;clk_domain=system.cpu_clk_domain&#10;clusivity=mostly_incl&#10;compressor=Null&#10;data_latency=2&#10;demand_mshr_reserve=1&#10;eventq_index=0&#10;is_read_only=false&#10;max_miss_count=0&#10;move_contractions=true&#10;mshrs=8&#10;power_model=&#10;power_state=system.cpu.dtb_walker_cache.power_state&#10;prefetch_on_access=false&#10;prefetch_on_pf_hit=false&#10;prefetcher=Null&#10;&#13;eplace_expansions=true&#10;&#13;eplacement_policy=system.cpu.dtb_walker_cache.replacement_policy&#10;&#13;esponse_latency=2&#10;sequential_access=false&#10;size=2048&#10;system=system&#10;tag_latency=2&#10;tags=system.cpu.dtb_walker_cache.tags&#10;tgts_per_mshr=12&#10;warmup_percentage=0&#10;write_allocator=Null&#10;write_buffers=8&#10;writeback_clean=false">
<path fill="#bab6ae" stroke="#000000" d="M1450,-286C1450,-286 1612,-286 1612,-286 1618,-286 1624,-292 1624,-298 1624,-298 1624,-365 1624,-365 1624,-371 1618,-377 1612,-377 1612,-377 1450,-377 1450,-377 1444,-377 1438,-371 1438,-365 1438,-365 1438,-298 1438,-298 1438,-292 1444,-286 1450,-286"/>
<text text-anchor="middle" x="1531" y="-361.8" font-family="Arial" font-size="14.00" fill="#000000">dtb_walker_cache </text>
<text text-anchor="middle" x="1531" y="-346.8" font-family="Arial" font-size="14.00" fill="#000000">: PageTableWalkerCache</text>
</a>
</g>
</g>
<g id="clust121" class="cluster">
<title>cluster_system_iocache</title>
<g id="a_clust121"><a xlink:title="addr_ranges=1073741824:9663676416&#10;assoc=8&#10;clk_domain=system.clk_domain&#10;clusivity=mostly_incl&#10;compressor=Null&#10;data_latency=50&#10;demand_mshr_reserve=1&#10;eventq_index=0&#10;is_read_only=false&#10;max_miss_count=0&#10;move_contractions=true&#10;mshrs=20&#10;power_model=&#10;power_state=system.iocache.power_state&#10;prefetch_on_access=false&#10;prefetch_on_pf_hit=false&#10;prefetcher=Null&#10;&#13;eplace_expansions=true&#10;&#13;eplacement_policy=system.iocache.replacement_policy&#10;&#13;esponse_latency=50&#10;sequential_access=false&#10;size=1024&#10;system=system&#10;tag_latency=50&#10;tags=system.iocache.tags&#10;tgts_per_mshr=12&#10;warmup_percentage=0&#10;write_allocator=Null&#10;write_buffers=8&#10;writeback_clean=false">
<path fill="#bab6ae" stroke="#000000" d="M472,-286C472,-286 634,-286 634,-286 640,-286 646,-292 646,-298 646,-298 646,-365 646,-365 646,-371 640,-377 634,-377 634,-377 472,-377 472,-377 466,-377 460,-371 460,-365 460,-365 460,-298 460,-298 460,-292 466,-286 472,-286"/>
<text text-anchor="middle" x="553" y="-361.8" font-family="Arial" font-size="14.00" fill="#000000">iocache </text>
<text text-anchor="middle" x="553" y="-346.8" font-family="Arial" font-size="14.00" fill="#000000">: IOCache</text>
</a>
</g>
</g>
<g id="clust127" class="cluster">
<title>cluster_system_l2</title>
<g id="a_clust127"><a xlink:title="addr_ranges=0:18446744073709551615&#10;assoc=8&#10;clk_domain=system.cpu_clk_domain&#10;clusivity=mostly_incl&#10;compressor=Null&#10;data_latency=18&#10;demand_mshr_reserve=1&#10;eventq_index=0&#10;is_read_only=false&#10;max_miss_count=0&#10;move_contractions=true&#10;mshrs=20&#10;power_model=&#10;power_state=system.l2.power_state&#10;prefetch_on_access=false&#10;prefetch_on_pf_hit=false&#10;prefetcher=system.l2.prefetcher&#10;&#13;eplace_expansions=true&#10;&#13;eplacement_policy=system.l2.replacement_policy&#10;&#13;esponse_latency=20&#10;sequential_access=false&#10;size=524288&#10;system=system&#10;tag_latency=18&#10;tags=system.l2.tags&#10;tgts_per_mshr=12&#10;warmup_percentage=0&#10;write_allocator=Null&#10;write_buffers=8&#10;writeback_clean=false">
<path fill="#bab6ae" stroke="#000000" d="M666,-286C666,-286 828,-286 828,-286 834,-286 840,-292 840,-298 840,-298 840,-365 840,-365 840,-371 834,-377 828,-377 828,-377 666,-377 666,-377 660,-377 654,-371 654,-365 654,-365 654,-298 654,-298 654,-292 660,-286 666,-286"/>
<text text-anchor="middle" x="747" y="-361.8" font-family="Arial" font-size="14.00" fill="#000000">l2 </text>
<text text-anchor="middle" x="747" y="-346.8" font-family="Arial" font-size="14.00" fill="#000000">: L2Cache</text>
</a>
</g>
</g>
<g id="clust135" class="cluster">
<title>cluster_system_tol2bus</title>
<g id="a_clust135"><a xlink:title="clk_domain=system.cpu_clk_domain&#10;eventq_index=0&#10;forward_latency=0&#10;frontend_latency=1&#10;header_latency=1&#10;max_outstanding_snoops=512&#10;max_routing_table_size=512&#10;point_of_coherency=false&#10;point_of_unification=true&#10;power_model=&#10;power_state=system.tol2bus.power_state&#10;&#13;esponse_latency=1&#10;snoop_filter=system.tol2bus.snoop_filter&#10;snoop_response_latency=1&#10;system=system&#10;use_default_range=false&#10;width=32">
<path fill="#6f798c" stroke="#000000" d="M592,-417C592,-417 828,-417 828,-417 834,-417 840,-423 840,-429 840,-429 840,-496 840,-496 840,-502 834,-508 828,-508 828,-508 592,-508 592,-508 586,-508 580,-502 580,-496 580,-496 580,-429 580,-429 580,-423 586,-417 592,-417"/>
<text text-anchor="middle" x="710" y="-492.8" font-family="Arial" font-size="14.00" fill="#000000">tol2bus </text>
<text text-anchor="middle" x="710" y="-477.8" font-family="Arial" font-size="14.00" fill="#000000">: L2XBar</text>
</a>
</g>
</g>
<g id="clust138" class="cluster">
<title>cluster_system_mem_ctrls</title>
<g id="a_clust138"><a xlink:title="clk_domain=system.clk_domain&#10;command_window=10000&#10;dram=system.mem_ctrls.dram&#10;eventq_index=0&#10;mem_sched_policy=frfcfs&#10;min_reads_per_switch=16&#10;min_writes_per_switch=16&#10;power_model=&#10;power_state=system.mem_ctrls.power_state&#10;qos_policy=Null&#10;qos_priorities=1&#10;qos_priority_escalation=false&#10;qos_q_policy=fifo&#10;qos_requestors= &#160;&#160;&#160;&#160;&#160;&#160;&#160;&#160;&#160;&#160;&#160;&#160;&#160;&#160;&#10;qos_syncro_scheduler=false&#10;qos_turnaround_policy=Null&#10;static_backend_latency=10000&#10;static_frontend_latency=10000&#10;system=system&#10;write_high_thresh_perc=85&#10;write_low_thresh_perc=50">
<path fill="#bab6ae" stroke="#000000" d="M380,-286C380,-286 440,-286 440,-286 446,-286 452,-292 452,-298 452,-298 452,-365 452,-365 452,-371 446,-377 440,-377 440,-377 380,-377 380,-377 374,-377 368,-371 368,-365 368,-365 368,-298 368,-298 368,-292 374,-286 380,-286"/>
<text text-anchor="middle" x="410" y="-361.8" font-family="Arial" font-size="14.00" fill="#000000">mem_ctrls </text>
<text text-anchor="middle" x="410" y="-346.8" font-family="Arial" font-size="14.00" fill="#000000">: MemCtrl</text>
</a>
</g>
</g>
<!-- system_system_port -->
<g id="node1" class="node">
<title>system_system_port</title>
<path fill="#b6b8bc" stroke="#000000" d="M264.5,-654.5C264.5,-654.5 331.5,-654.5 331.5,-654.5 337.5,-654.5 343.5,-660.5 343.5,-666.5 343.5,-666.5 343.5,-678.5 343.5,-678.5 343.5,-684.5 337.5,-690.5 331.5,-690.5 331.5,-690.5 264.5,-690.5 264.5,-690.5 258.5,-690.5 252.5,-684.5 252.5,-678.5 252.5,-678.5 252.5,-666.5 252.5,-666.5 252.5,-660.5 258.5,-654.5 264.5,-654.5"/>
<text text-anchor="middle" x="298" y="-668.8" font-family="Arial" font-size="14.00" fill="#000000">system_port</text>
</g>
<!-- system_membus_cpu_side_ports -->
<g id="node4" class="node">
<title>system_membus_cpu_side_ports</title>
<path fill="#586070" stroke="#000000" d="M256,-425.5C256,-425.5 340,-425.5 340,-425.5 346,-425.5 352,-431.5 352,-437.5 352,-437.5 352,-449.5 352,-449.5 352,-455.5 346,-461.5 340,-461.5 340,-461.5 256,-461.5 256,-461.5 250,-461.5 244,-455.5 244,-449.5 244,-449.5 244,-437.5 244,-437.5 244,-431.5 250,-425.5 256,-425.5"/>
<text text-anchor="middle" x="298" y="-439.8" font-family="Arial" font-size="14.00" fill="#000000">cpu_side_ports</text>
</g>
<!-- system_system_port&#45;&gt;system_membus_cpu_side_ports -->
<g id="edge1" class="edge">
<title>system_system_port&#45;&gt;system_membus_cpu_side_ports</title>
<path fill="none" stroke="black" d="M298,-654.44C298,-615.41 298,-519.35 298,-471.91"/>
<polygon fill="black" stroke="black" points="301.5,-471.76 298,-461.76 294.5,-471.76 301.5,-471.76"/>
</g>
<!-- system_iobus_cpu_side_ports -->
<g id="node2" class="node">
<title>system_iobus_cpu_side_ports</title>
<path fill="#586070" stroke="#000000" d="M604,-163.5C604,-163.5 688,-163.5 688,-163.5 694,-163.5 700,-169.5 700,-175.5 700,-175.5 700,-187.5 700,-187.5 700,-193.5 694,-199.5 688,-199.5 688,-199.5 604,-199.5 604,-199.5 598,-199.5 592,-193.5 592,-187.5 592,-187.5 592,-175.5 592,-175.5 592,-169.5 598,-163.5 604,-163.5"/>
<text text-anchor="middle" x="646" y="-177.8" font-family="Arial" font-size="14.00" fill="#000000">cpu_side_ports</text>
</g>
<!-- system_bridge_mem_side_port -->
<g id="node8" class="node">
<title>system_bridge_mem_side_port</title>
<path fill="#94918b" stroke="#000000" d="M387.5,-32.5C387.5,-32.5 474.5,-32.5 474.5,-32.5 480.5,-32.5 486.5,-38.5 486.5,-44.5 486.5,-44.5 486.5,-56.5 486.5,-56.5 486.5,-62.5 480.5,-68.5 474.5,-68.5 474.5,-68.5 387.5,-68.5 387.5,-68.5 381.5,-68.5 375.5,-62.5 375.5,-56.5 375.5,-56.5 375.5,-44.5 375.5,-44.5 375.5,-38.5 381.5,-32.5 387.5,-32.5"/>
<text text-anchor="middle" x="431" y="-46.8" font-family="Arial" font-size="14.00" fill="#000000">mem_side_port</text>
</g>
<!-- system_iobus_cpu_side_ports&#45;&gt;system_bridge_mem_side_port -->
<g id="edge2" class="edge">
<title>system_iobus_cpu_side_ports&#45;&gt;system_bridge_mem_side_port</title>
<path fill="none" stroke="black" d="M608.82,-158.19C566.46,-132.77 498.12,-91.77 459.67,-68.7"/>
<polygon fill="black" stroke="black" points="607.07,-161.23 617.45,-163.37 610.68,-155.22 607.07,-161.23"/>
</g>
<!-- system_iobus_mem_side_ports -->
<g id="node3" class="node">
<title>system_iobus_mem_side_ports</title>
<path fill="#586070" stroke="#000000" d="M468,-163.5C468,-163.5 562,-163.5 562,-163.5 568,-163.5 574,-169.5 574,-175.5 574,-175.5 574,-187.5 574,-187.5 574,-193.5 568,-199.5 562,-199.5 562,-199.5 468,-199.5 468,-199.5 462,-199.5 456,-193.5 456,-187.5 456,-187.5 456,-175.5 456,-175.5 456,-169.5 462,-163.5 468,-163.5"/>
<text text-anchor="middle" x="515" y="-177.8" font-family="Arial" font-size="14.00" fill="#000000">mem_side_ports</text>
</g>
<!-- system_iocache_mem_side -->
<g id="node23" class="node">
<title>system_iocache_mem_side</title>
<path fill="#94918b" stroke="#000000" d="M480,-294.5C480,-294.5 536,-294.5 536,-294.5 542,-294.5 548,-300.5 548,-306.5 548,-306.5 548,-318.5 548,-318.5 548,-324.5 542,-330.5 536,-330.5 536,-330.5 480,-330.5 480,-330.5 474,-330.5 468,-324.5 468,-318.5 468,-318.5 468,-306.5 468,-306.5 468,-300.5 474,-294.5 480,-294.5"/>
<text text-anchor="middle" x="508" y="-308.8" font-family="Arial" font-size="14.00" fill="#000000">mem_side</text>
</g>
<!-- system_membus_cpu_side_ports&#45;&gt;system_iocache_mem_side -->
<g id="edge3" class="edge">
<title>system_membus_cpu_side_ports&#45;&gt;system_iocache_mem_side</title>
<path fill="none" stroke="black" d="M361.91,-424.07C392.25,-413.38 427.93,-397.85 456,-377 473.16,-364.26 488.06,-344.65 497.46,-330.59"/>
<polygon fill="black" stroke="black" points="360.58,-420.82 352.26,-427.37 362.85,-427.44 360.58,-420.82"/>
</g>
<!-- system_l2_mem_side -->
<g id="node25" class="node">
<title>system_l2_mem_side</title>
<path fill="#94918b" stroke="#000000" d="M674,-294.5C674,-294.5 730,-294.5 730,-294.5 736,-294.5 742,-300.5 742,-306.5 742,-306.5 742,-318.5 742,-318.5 742,-324.5 736,-330.5 730,-330.5 730,-330.5 674,-330.5 674,-330.5 668,-330.5 662,-324.5 662,-318.5 662,-318.5 662,-306.5 662,-306.5 662,-300.5 668,-294.5 674,-294.5"/>
<text text-anchor="middle" x="702" y="-308.8" font-family="Arial" font-size="14.00" fill="#000000">mem_side</text>
</g>
<!-- system_membus_cpu_side_ports&#45;&gt;system_l2_mem_side -->
<g id="edge4" class="edge">
<title>system_membus_cpu_side_ports&#45;&gt;system_l2_mem_side</title>
<path fill="none" stroke="black" d="M362.2,-433C456.92,-418.61 625.58,-391.45 650,-377 668.76,-365.9 683.67,-345.38 692.63,-330.67"/>
<polygon fill="black" stroke="black" points="361.52,-429.56 352.15,-434.52 362.56,-436.48 361.52,-429.56"/>
</g>
<!-- system_membus_mem_side_ports -->
<g id="node5" class="node">
<title>system_membus_mem_side_ports</title>
<path fill="#586070" stroke="#000000" d="M120,-425.5C120,-425.5 214,-425.5 214,-425.5 220,-425.5 226,-431.5 226,-437.5 226,-437.5 226,-449.5 226,-449.5 226,-455.5 220,-461.5 214,-461.5 214,-461.5 120,-461.5 120,-461.5 114,-461.5 108,-455.5 108,-449.5 108,-449.5 108,-437.5 108,-437.5 108,-431.5 114,-425.5 120,-425.5"/>
<text text-anchor="middle" x="167" y="-439.8" font-family="Arial" font-size="14.00" fill="#000000">mem_side_ports</text>
</g>
<!-- system_bridge_cpu_side_port -->
<g id="node9" class="node">
<title>system_bridge_cpu_side_port</title>
<path fill="#94918b" stroke="#000000" d="M268.5,-32.5C268.5,-32.5 345.5,-32.5 345.5,-32.5 351.5,-32.5 357.5,-38.5 357.5,-44.5 357.5,-44.5 357.5,-56.5 357.5,-56.5 357.5,-62.5 351.5,-68.5 345.5,-68.5 345.5,-68.5 268.5,-68.5 268.5,-68.5 262.5,-68.5 256.5,-62.5 256.5,-56.5 256.5,-56.5 256.5,-44.5 256.5,-44.5 256.5,-38.5 262.5,-32.5 268.5,-32.5"/>
<text text-anchor="middle" x="307" y="-46.8" font-family="Arial" font-size="14.00" fill="#000000">cpu_side_port</text>
</g>
<!-- system_membus_mem_side_ports&#45;&gt;system_bridge_cpu_side_port -->
<g id="edge5" class="edge">
<title>system_membus_mem_side_ports&#45;&gt;system_bridge_cpu_side_port</title>
<path fill="none" stroke="black" d="M173.11,-425.45C195.12,-363.96 270.54,-153.32 297.4,-78.3"/>
<polygon fill="black" stroke="black" points="300.79,-79.24 300.86,-68.64 294.2,-76.88 300.79,-79.24"/>
</g>
<!-- system_mem_ctrls_port -->
<g id="node28" class="node">
<title>system_mem_ctrls_port</title>
<path fill="#94918b" stroke="#000000" d="M388,-294.5C388,-294.5 418,-294.5 418,-294.5 424,-294.5 430,-300.5 430,-306.5 430,-306.5 430,-318.5 430,-318.5 430,-324.5 424,-330.5 418,-330.5 418,-330.5 388,-330.5 388,-330.5 382,-330.5 376,-324.5 376,-318.5 376,-318.5 376,-306.5 376,-306.5 376,-300.5 382,-294.5 388,-294.5"/>
<text text-anchor="middle" x="403" y="-308.8" font-family="Arial" font-size="14.00" fill="#000000">port</text>
</g>
<!-- system_membus_mem_side_ports&#45;&gt;system_mem_ctrls_port -->
<g id="edge6" class="edge">
<title>system_membus_mem_side_ports&#45;&gt;system_mem_ctrls_port</title>
<path fill="none" stroke="black" d="M190.13,-425.46C202.8,-416.91 219.11,-407.09 235,-401 289.46,-380.13 315.93,-410.02 364,-377 377.13,-367.98 386.65,-352.95 393,-339.78"/>
<polygon fill="black" stroke="black" points="396.2,-341.18 397.06,-330.62 389.8,-338.34 396.2,-341.18"/>
</g>
<!-- system_membus_default -->
<g id="node6" class="node">
<title>system_membus_default</title>
<path fill="#586070" stroke="#000000" d="M44.5,-425.5C44.5,-425.5 77.5,-425.5 77.5,-425.5 83.5,-425.5 89.5,-431.5 89.5,-437.5 89.5,-437.5 89.5,-449.5 89.5,-449.5 89.5,-455.5 83.5,-461.5 77.5,-461.5 77.5,-461.5 44.5,-461.5 44.5,-461.5 38.5,-461.5 32.5,-455.5 32.5,-449.5 32.5,-449.5 32.5,-437.5 32.5,-437.5 32.5,-431.5 38.5,-425.5 44.5,-425.5"/>
<text text-anchor="middle" x="61" y="-439.8" font-family="Arial" font-size="14.00" fill="#000000">default</text>
</g>
<!-- system_membus_badaddr_responder_pio -->
<g id="node7" class="node">
<title>system_membus_badaddr_responder_pio</title>
<path fill="#9f8575" stroke="#000000" d="M52,-294.5C52,-294.5 82,-294.5 82,-294.5 88,-294.5 94,-300.5 94,-306.5 94,-306.5 94,-318.5 94,-318.5 94,-324.5 88,-330.5 82,-330.5 82,-330.5 52,-330.5 52,-330.5 46,-330.5 40,-324.5 40,-318.5 40,-318.5 40,-306.5 40,-306.5 40,-300.5 46,-294.5 52,-294.5"/>
<text text-anchor="middle" x="67" y="-308.8" font-family="Arial" font-size="14.00" fill="#000000">pio</text>
</g>
<!-- system_membus_default&#45;&gt;system_membus_badaddr_responder_pio -->
<g id="edge7" class="edge">
<title>system_membus_default&#45;&gt;system_membus_badaddr_responder_pio</title>
<path fill="none" stroke="black" d="M61.8,-425.37C62.8,-403.78 64.54,-366.41 65.73,-340.85"/>
<polygon fill="black" stroke="black" points="69.23,-340.85 66.2,-330.7 62.24,-340.53 69.23,-340.85"/>
</g>
<!-- system_cpu_icache_port -->
<g id="node10" class="node">
<title>system_cpu_icache_port</title>
<path fill="#959ead" stroke="#000000" d="M1161,-425.5C1161,-425.5 1223,-425.5 1223,-425.5 1229,-425.5 1235,-431.5 1235,-437.5 1235,-437.5 1235,-449.5 1235,-449.5 1235,-455.5 1229,-461.5 1223,-461.5 1223,-461.5 1161,-461.5 1161,-461.5 1155,-461.5 1149,-455.5 1149,-449.5 1149,-449.5 1149,-437.5 1149,-437.5 1149,-431.5 1155,-425.5 1161,-425.5"/>
<text text-anchor="middle" x="1192" y="-439.8" font-family="Arial" font-size="14.00" fill="#000000">icache_port</text>
</g>
<!-- system_cpu_icache_cpu_side -->
<g id="node14" class="node">
<title>system_cpu_icache_cpu_side</title>
<path fill="#94918b" stroke="#000000" d="M1168.5,-294.5C1168.5,-294.5 1215.5,-294.5 1215.5,-294.5 1221.5,-294.5 1227.5,-300.5 1227.5,-306.5 1227.5,-306.5 1227.5,-318.5 1227.5,-318.5 1227.5,-324.5 1221.5,-330.5 1215.5,-330.5 1215.5,-330.5 1168.5,-330.5 1168.5,-330.5 1162.5,-330.5 1156.5,-324.5 1156.5,-318.5 1156.5,-318.5 1156.5,-306.5 1156.5,-306.5 1156.5,-300.5 1162.5,-294.5 1168.5,-294.5"/>
<text text-anchor="middle" x="1192" y="-308.8" font-family="Arial" font-size="14.00" fill="#000000">cpu_side</text>
</g>
<!-- system_cpu_icache_port&#45;&gt;system_cpu_icache_cpu_side -->
<g id="edge8" class="edge">
<title>system_cpu_icache_port&#45;&gt;system_cpu_icache_cpu_side</title>
<path fill="none" stroke="black" d="M1192,-425.37C1192,-403.78 1192,-366.41 1192,-340.85"/>
<polygon fill="black" stroke="black" points="1195.5,-340.7 1192,-330.7 1188.5,-340.7 1195.5,-340.7"/>
</g>
<!-- system_cpu_dcache_port -->
<g id="node11" class="node">
<title>system_cpu_dcache_port</title>
<path fill="#959ead" stroke="#000000" d="M964.5,-425.5C964.5,-425.5 1031.5,-425.5 1031.5,-425.5 1037.5,-425.5 1043.5,-431.5 1043.5,-437.5 1043.5,-437.5 1043.5,-449.5 1043.5,-449.5 1043.5,-455.5 1037.5,-461.5 1031.5,-461.5 1031.5,-461.5 964.5,-461.5 964.5,-461.5 958.5,-461.5 952.5,-455.5 952.5,-449.5 952.5,-449.5 952.5,-437.5 952.5,-437.5 952.5,-431.5 958.5,-425.5 964.5,-425.5"/>
<text text-anchor="middle" x="998" y="-439.8" font-family="Arial" font-size="14.00" fill="#000000">dcache_port</text>
</g>
<!-- system_cpu_dcache_cpu_side -->
<g id="node16" class="node">
<title>system_cpu_dcache_cpu_side</title>
<path fill="#94918b" stroke="#000000" d="M974.5,-294.5C974.5,-294.5 1021.5,-294.5 1021.5,-294.5 1027.5,-294.5 1033.5,-300.5 1033.5,-306.5 1033.5,-306.5 1033.5,-318.5 1033.5,-318.5 1033.5,-324.5 1027.5,-330.5 1021.5,-330.5 1021.5,-330.5 974.5,-330.5 974.5,-330.5 968.5,-330.5 962.5,-324.5 962.5,-318.5 962.5,-318.5 962.5,-306.5 962.5,-306.5 962.5,-300.5 968.5,-294.5 974.5,-294.5"/>
<text text-anchor="middle" x="998" y="-308.8" font-family="Arial" font-size="14.00" fill="#000000">cpu_side</text>
</g>
<!-- system_cpu_dcache_port&#45;&gt;system_cpu_dcache_cpu_side -->
<g id="edge9" class="edge">
<title>system_cpu_dcache_port&#45;&gt;system_cpu_dcache_cpu_side</title>
<path fill="none" stroke="black" d="M998,-425.37C998,-403.78 998,-366.41 998,-340.85"/>
<polygon fill="black" stroke="black" points="1001.5,-340.7 998,-330.7 994.5,-340.7 1001.5,-340.7"/>
</g>
<!-- system_cpu_mmu_itb_walker_port -->
<g id="node12" class="node">
<title>system_cpu_mmu_itb_walker_port</title>
<path fill="#6a6863" stroke="#000000" d="M1371,-425.5C1371,-425.5 1401,-425.5 1401,-425.5 1407,-425.5 1413,-431.5 1413,-437.5 1413,-437.5 1413,-449.5 1413,-449.5 1413,-455.5 1407,-461.5 1401,-461.5 1401,-461.5 1371,-461.5 1371,-461.5 1365,-461.5 1359,-455.5 1359,-449.5 1359,-449.5 1359,-437.5 1359,-437.5 1359,-431.5 1365,-425.5 1371,-425.5"/>
<text text-anchor="middle" x="1386" y="-439.8" font-family="Arial" font-size="14.00" fill="#000000">port</text>
</g>
<!-- system_cpu_itb_walker_cache_cpu_side -->
<g id="node18" class="node">
<title>system_cpu_itb_walker_cache_cpu_side</title>
<path fill="#94918b" stroke="#000000" d="M1362.5,-294.5C1362.5,-294.5 1409.5,-294.5 1409.5,-294.5 1415.5,-294.5 1421.5,-300.5 1421.5,-306.5 1421.5,-306.5 1421.5,-318.5 1421.5,-318.5 1421.5,-324.5 1415.5,-330.5 1409.5,-330.5 1409.5,-330.5 1362.5,-330.5 1362.5,-330.5 1356.5,-330.5 1350.5,-324.5 1350.5,-318.5 1350.5,-318.5 1350.5,-306.5 1350.5,-306.5 1350.5,-300.5 1356.5,-294.5 1362.5,-294.5"/>
<text text-anchor="middle" x="1386" y="-308.8" font-family="Arial" font-size="14.00" fill="#000000">cpu_side</text>
</g>
<!-- system_cpu_mmu_itb_walker_port&#45;&gt;system_cpu_itb_walker_cache_cpu_side -->
<g id="edge10" class="edge">
<title>system_cpu_mmu_itb_walker_port&#45;&gt;system_cpu_itb_walker_cache_cpu_side</title>
<path fill="none" stroke="black" d="M1386,-425.37C1386,-403.78 1386,-366.41 1386,-340.85"/>
<polygon fill="black" stroke="black" points="1389.5,-340.7 1386,-330.7 1382.5,-340.7 1389.5,-340.7"/>
</g>
<!-- system_cpu_mmu_dtb_walker_port -->
<g id="node13" class="node">
<title>system_cpu_mmu_dtb_walker_port</title>
<path fill="#6a6863" stroke="#000000" d="M1558,-425.5C1558,-425.5 1588,-425.5 1588,-425.5 1594,-425.5 1600,-431.5 1600,-437.5 1600,-437.5 1600,-449.5 1600,-449.5 1600,-455.5 1594,-461.5 1588,-461.5 1588,-461.5 1558,-461.5 1558,-461.5 1552,-461.5 1546,-455.5 1546,-449.5 1546,-449.5 1546,-437.5 1546,-437.5 1546,-431.5 1552,-425.5 1558,-425.5"/>
<text text-anchor="middle" x="1573" y="-439.8" font-family="Arial" font-size="14.00" fill="#000000">port</text>
</g>
<!-- system_cpu_dtb_walker_cache_cpu_side -->
<g id="node20" class="node">
<title>system_cpu_dtb_walker_cache_cpu_side</title>
<path fill="#94918b" stroke="#000000" d="M1556.5,-294.5C1556.5,-294.5 1603.5,-294.5 1603.5,-294.5 1609.5,-294.5 1615.5,-300.5 1615.5,-306.5 1615.5,-306.5 1615.5,-318.5 1615.5,-318.5 1615.5,-324.5 1609.5,-330.5 1603.5,-330.5 1603.5,-330.5 1556.5,-330.5 1556.5,-330.5 1550.5,-330.5 1544.5,-324.5 1544.5,-318.5 1544.5,-318.5 1544.5,-306.5 1544.5,-306.5 1544.5,-300.5 1550.5,-294.5 1556.5,-294.5"/>
<text text-anchor="middle" x="1580" y="-308.8" font-family="Arial" font-size="14.00" fill="#000000">cpu_side</text>
</g>
<!-- system_cpu_mmu_dtb_walker_port&#45;&gt;system_cpu_dtb_walker_cache_cpu_side -->
<g id="edge11" class="edge">
<title>system_cpu_mmu_dtb_walker_port&#45;&gt;system_cpu_dtb_walker_cache_cpu_side</title>
<path fill="none" stroke="black" d="M1573.93,-425.37C1575.1,-403.78 1577.13,-366.41 1578.52,-340.85"/>
<polygon fill="black" stroke="black" points="1582.02,-340.88 1579.07,-330.7 1575.03,-340.5 1582.02,-340.88"/>
</g>
<!-- system_cpu_icache_mem_side -->
<g id="node15" class="node">
<title>system_cpu_icache_mem_side</title>
<path fill="#94918b" stroke="#000000" d="M1070,-294.5C1070,-294.5 1126,-294.5 1126,-294.5 1132,-294.5 1138,-300.5 1138,-306.5 1138,-306.5 1138,-318.5 1138,-318.5 1138,-324.5 1132,-330.5 1126,-330.5 1126,-330.5 1070,-330.5 1070,-330.5 1064,-330.5 1058,-324.5 1058,-318.5 1058,-318.5 1058,-306.5 1058,-306.5 1058,-300.5 1064,-294.5 1070,-294.5"/>
<text text-anchor="middle" x="1098" y="-308.8" font-family="Arial" font-size="14.00" fill="#000000">mem_side</text>
</g>
<!-- system_cpu_dcache_mem_side -->
<g id="node17" class="node">
<title>system_cpu_dcache_mem_side</title>
<path fill="#94918b" stroke="#000000" d="M876,-294.5C876,-294.5 932,-294.5 932,-294.5 938,-294.5 944,-300.5 944,-306.5 944,-306.5 944,-318.5 944,-318.5 944,-324.5 938,-330.5 932,-330.5 932,-330.5 876,-330.5 876,-330.5 870,-330.5 864,-324.5 864,-318.5 864,-318.5 864,-306.5 864,-306.5 864,-300.5 870,-294.5 876,-294.5"/>
<text text-anchor="middle" x="904" y="-308.8" font-family="Arial" font-size="14.00" fill="#000000">mem_side</text>
</g>
<!-- system_cpu_itb_walker_cache_mem_side -->
<g id="node19" class="node">
<title>system_cpu_itb_walker_cache_mem_side</title>
<path fill="#94918b" stroke="#000000" d="M1264,-294.5C1264,-294.5 1320,-294.5 1320,-294.5 1326,-294.5 1332,-300.5 1332,-306.5 1332,-306.5 1332,-318.5 1332,-318.5 1332,-324.5 1326,-330.5 1320,-330.5 1320,-330.5 1264,-330.5 1264,-330.5 1258,-330.5 1252,-324.5 1252,-318.5 1252,-318.5 1252,-306.5 1252,-306.5 1252,-300.5 1258,-294.5 1264,-294.5"/>
<text text-anchor="middle" x="1292" y="-308.8" font-family="Arial" font-size="14.00" fill="#000000">mem_side</text>
</g>
<!-- system_cpu_dtb_walker_cache_mem_side -->
<g id="node21" class="node">
<title>system_cpu_dtb_walker_cache_mem_side</title>
<path fill="#94918b" stroke="#000000" d="M1458,-294.5C1458,-294.5 1514,-294.5 1514,-294.5 1520,-294.5 1526,-300.5 1526,-306.5 1526,-306.5 1526,-318.5 1526,-318.5 1526,-324.5 1520,-330.5 1514,-330.5 1514,-330.5 1458,-330.5 1458,-330.5 1452,-330.5 1446,-324.5 1446,-318.5 1446,-318.5 1446,-306.5 1446,-306.5 1446,-300.5 1452,-294.5 1458,-294.5"/>
<text text-anchor="middle" x="1486" y="-308.8" font-family="Arial" font-size="14.00" fill="#000000">mem_side</text>
</g>
<!-- system_iocache_cpu_side -->
<g id="node22" class="node">
<title>system_iocache_cpu_side</title>
<path fill="#94918b" stroke="#000000" d="M578.5,-294.5C578.5,-294.5 625.5,-294.5 625.5,-294.5 631.5,-294.5 637.5,-300.5 637.5,-306.5 637.5,-306.5 637.5,-318.5 637.5,-318.5 637.5,-324.5 631.5,-330.5 625.5,-330.5 625.5,-330.5 578.5,-330.5 578.5,-330.5 572.5,-330.5 566.5,-324.5 566.5,-318.5 566.5,-318.5 566.5,-306.5 566.5,-306.5 566.5,-300.5 572.5,-294.5 578.5,-294.5"/>
<text text-anchor="middle" x="602" y="-308.8" font-family="Arial" font-size="14.00" fill="#000000">cpu_side</text>
</g>
<!-- system_iocache_cpu_side&#45;&gt;system_iobus_mem_side_ports -->
<g id="edge12" class="edge">
<title>system_iocache_cpu_side&#45;&gt;system_iobus_mem_side_ports</title>
<path fill="none" stroke="black" d="M584.75,-285.92C567.52,-260.37 541.51,-221.81 526.6,-199.7"/>
<polygon fill="black" stroke="black" points="581.95,-288.04 590.45,-294.37 587.76,-284.12 581.95,-288.04"/>
</g>
<!-- system_l2_cpu_side -->
<g id="node24" class="node">
<title>system_l2_cpu_side</title>
<path fill="#94918b" stroke="#000000" d="M772.5,-294.5C772.5,-294.5 819.5,-294.5 819.5,-294.5 825.5,-294.5 831.5,-300.5 831.5,-306.5 831.5,-306.5 831.5,-318.5 831.5,-318.5 831.5,-324.5 825.5,-330.5 819.5,-330.5 819.5,-330.5 772.5,-330.5 772.5,-330.5 766.5,-330.5 760.5,-324.5 760.5,-318.5 760.5,-318.5 760.5,-306.5 760.5,-306.5 760.5,-300.5 766.5,-294.5 772.5,-294.5"/>
<text text-anchor="middle" x="796" y="-308.8" font-family="Arial" font-size="14.00" fill="#000000">cpu_side</text>
</g>
<!-- system_tol2bus_cpu_side_ports -->
<g id="node26" class="node">
<title>system_tol2bus_cpu_side_ports</title>
<path fill="#586070" stroke="#000000" d="M736,-425.5C736,-425.5 820,-425.5 820,-425.5 826,-425.5 832,-431.5 832,-437.5 832,-437.5 832,-449.5 832,-449.5 832,-455.5 826,-461.5 820,-461.5 820,-461.5 736,-461.5 736,-461.5 730,-461.5 724,-455.5 724,-449.5 724,-449.5 724,-437.5 724,-437.5 724,-431.5 730,-425.5 736,-425.5"/>
<text text-anchor="middle" x="778" y="-439.8" font-family="Arial" font-size="14.00" fill="#000000">cpu_side_ports</text>
</g>
<!-- system_tol2bus_cpu_side_ports&#45;&gt;system_cpu_icache_mem_side -->
<g id="edge13" class="edge">
<title>system_tol2bus_cpu_side_ports&#45;&gt;system_cpu_icache_mem_side</title>
<path fill="none" stroke="black" d="M807.89,-419.78C818.73,-412.63 831.41,-405.45 844,-401 929.24,-370.87 966.72,-420.46 1046,-377 1065.24,-366.45 1080.15,-345.62 1088.98,-330.69"/>
<polygon fill="black" stroke="black" points="805.89,-416.9 799.63,-425.45 809.85,-422.67 805.89,-416.9"/>
</g>
<!-- system_tol2bus_cpu_side_ports&#45;&gt;system_cpu_dcache_mem_side -->
<g id="edge14" class="edge">
<title>system_tol2bus_cpu_side_ports&#45;&gt;system_cpu_dcache_mem_side</title>
<path fill="none" stroke="black" d="M802.87,-418.19C815.32,-405.93 830.56,-390.78 844,-377 859.15,-361.48 876.09,-343.48 888.1,-330.62"/>
<polygon fill="black" stroke="black" points="800.2,-415.91 795.52,-425.41 805.11,-420.9 800.2,-415.91"/>
</g>
<!-- system_tol2bus_cpu_side_ports&#45;&gt;system_cpu_itb_walker_cache_mem_side -->
<g id="edge15" class="edge">
<title>system_tol2bus_cpu_side_ports&#45;&gt;system_cpu_itb_walker_cache_mem_side</title>
<path fill="none" stroke="black" d="M807.49,-419.54C818.37,-412.3 831.19,-405.12 844,-401 927.93,-374.03 1161.5,-417.13 1240,-377 1259.67,-366.95 1274.58,-345.79 1283.29,-330.66"/>
<polygon fill="black" stroke="black" points="805.42,-416.71 799.21,-425.3 809.42,-422.46 805.42,-416.71"/>
</g>
<!-- system_tol2bus_cpu_side_ports&#45;&gt;system_cpu_dtb_walker_cache_mem_side -->
<g id="edge16" class="edge">
<title>system_tol2bus_cpu_side_ports&#45;&gt;system_cpu_dtb_walker_cache_mem_side</title>
<path fill="none" stroke="black" d="M807.19,-419.57C818.12,-412.25 831.05,-405.02 844,-401 969.32,-362.1 1316.58,-435.57 1434,-377 1453.76,-367.14 1468.66,-345.94 1477.33,-330.75"/>
<polygon fill="black" stroke="black" points="805.06,-416.78 798.88,-425.39 809.08,-422.51 805.06,-416.78"/>
</g>
<!-- system_tol2bus_mem_side_ports -->
<g id="node27" class="node">
<title>system_tol2bus_mem_side_ports</title>
<path fill="#586070" stroke="#000000" d="M600,-425.5C600,-425.5 694,-425.5 694,-425.5 700,-425.5 706,-431.5 706,-437.5 706,-437.5 706,-449.5 706,-449.5 706,-455.5 700,-461.5 694,-461.5 694,-461.5 600,-461.5 600,-461.5 594,-461.5 588,-455.5 588,-449.5 588,-449.5 588,-437.5 588,-437.5 588,-431.5 594,-425.5 600,-425.5"/>
<text text-anchor="middle" x="647" y="-439.8" font-family="Arial" font-size="14.00" fill="#000000">mem_side_ports</text>
</g>
<!-- system_tol2bus_mem_side_ports&#45;&gt;system_l2_cpu_side -->
<g id="edge17" class="edge">
<title>system_tol2bus_mem_side_ports&#45;&gt;system_l2_cpu_side</title>
<path fill="none" stroke="black" d="M674.8,-425.37C704.49,-407 747.77,-380.06 751,-377 762.68,-365.94 773.24,-351.42 781.18,-339.07"/>
<polygon fill="black" stroke="black" points="784.18,-340.87 786.48,-330.53 778.23,-337.18 784.18,-340.87"/>
</g>
</g>
</svg>
