<?xml version="1.0" encoding="UTF-8" standalone="no"?>
<!DOCTYPE svg PUBLIC "-//W3C//DTD SVG 1.1//EN"
 "http://www.w3.org/Graphics/SVG/1.1/DTD/svg11.dtd">
<!-- Generated by graphviz version 2.43.0 (0)
 -->
<!-- Title: G Pages: 1 -->
<svg width="1772pt" height="668pt"
 viewBox="0.00 0.00 1772.00 668.00" xmlns="http://www.w3.org/2000/svg" xmlns:xlink="http://www.w3.org/1999/xlink">
<g id="graph0" class="graph" transform="scale(1 1) rotate(0) translate(4 664)">
<title>G</title>
<polygon fill="white" stroke="transparent" points="-4,4 -4,-664 1768,-664 1768,4 -4,4"/>
<g id="clust1" class="cluster">
<title>cluster_root</title>
<g id="a_clust1"><a xlink:title="eventq_index=0&#10;full_system=false&#10;sim_quantum=0&#10;time_sync_enable=false&#10;time_sync_period=100000000000&#10;time_sync_spin_threshold=100000000">
<path fill="#bab6ae" stroke="#000000" d="M20,-8C20,-8 1744,-8 1744,-8 1750,-8 1756,-14 1756,-20 1756,-20 1756,-640 1756,-640 1756,-646 1750,-652 1744,-652 1744,-652 20,-652 20,-652 14,-652 8,-646 8,-640 8,-640 8,-20 8,-20 8,-14 14,-8 20,-8"/>
<text text-anchor="middle" x="882" y="-636.8" font-family="Arial" font-size="14.00" fill="#000000">root </text>
<text text-anchor="middle" x="882" y="-621.8" font-family="Arial" font-size="14.00" fill="#000000">: Root</text>
</a>
</g>
</g>
<g id="clust2" class="cluster">
<title>cluster_system</title>
<g id="a_clust2"><a xlink:title="auto_unlink_shared_backstore=false&#10;cache_line_size=64&#10;eventq_index=0&#10;exit_on_work_items=false&#10;init_param=0&#10;m5ops_base=0&#10;mem_mode=timing&#10;mem_ranges=2147483648:6442450944&#10;memories=system.mem_ctrls0.dram system.mem_ctrls1.dram&#10;mmap_using_noreserve=false&#10;multi_thread=false&#10;&#10;um_work_ids=16&#10;&#13;eadfile=&#10;&#13;edirect_paths=&#10;shadow_rom_ranges=&#10;shared_backstore=&#10;symbolfile=&#10;thermal_components=&#10;thermal_model=Null&#10;work_begin_ckpt_count=0&#10;work_begin_cpu_id_exit=&#45;1&#10;work_begin_exit_count=0&#10;work_cpus_ckpt_count=0&#10;work_end_ckpt_count=0&#10;work_end_exit_count=0&#10;work_item_id=&#45;1&#10;workload=system.workload">
<path fill="#e4e7eb" stroke="#000000" d="M28,-16C28,-16 1736,-16 1736,-16 1742,-16 1748,-22 1748,-28 1748,-28 1748,-594 1748,-594 1748,-600 1742,-606 1736,-606 1736,-606 28,-606 28,-606 22,-606 16,-600 16,-594 16,-594 16,-28 16,-28 16,-22 22,-16 28,-16"/>
<text text-anchor="middle" x="882" y="-590.8" font-family="Arial" font-size="14.00" fill="#000000">system </text>
<text text-anchor="middle" x="882" y="-575.8" font-family="Arial" font-size="14.00" fill="#000000">: System</text>
</a>
</g>
</g>
<g id="clust4" class="cluster">
<title>cluster_system_iobus</title>
<g id="a_clust4"><a xlink:title="clk_domain=system.clk_domain&#10;eventq_index=0&#10;forward_latency=1&#10;frontend_latency=2&#10;header_latency=1&#10;power_model=&#10;power_state=system.iobus.power_state&#10;&#13;esponse_latency=2&#10;use_default_range=false&#10;width=16">
<path fill="#6f798c" stroke="#000000" d="M655,-24C655,-24 765,-24 765,-24 771,-24 777,-30 777,-36 777,-36 777,-103 777,-103 777,-109 771,-115 765,-115 765,-115 655,-115 655,-115 649,-115 643,-109 643,-103 643,-103 643,-36 643,-36 643,-30 649,-24 655,-24"/>
<text text-anchor="middle" x="710" y="-99.8" font-family="Arial" font-size="14.00" fill="#000000">iobus </text>
<text text-anchor="middle" x="710" y="-84.8" font-family="Arial" font-size="14.00" fill="#000000">: IOXBar</text>
</a>
</g>
</g>
<g id="clust6" class="cluster">
<title>cluster_system_membus</title>
<g id="a_clust6"><a xlink:title="clk_domain=system.clk_domain&#10;eventq_index=0&#10;forward_latency=4&#10;frontend_latency=3&#10;header_latency=1&#10;max_outstanding_snoops=512&#10;max_routing_table_size=512&#10;point_of_coherency=true&#10;point_of_unification=true&#10;power_model=&#10;power_state=system.membus.power_state&#10;&#13;esponse_latency=2&#10;snoop_filter=system.membus.snoop_filter&#10;snoop_response_latency=4&#10;system=system&#10;use_default_range=false&#10;width=16">
<path fill="#6f798c" stroke="#000000" d="M36,-147C36,-147 348,-147 348,-147 354,-147 360,-153 360,-159 360,-159 360,-365 360,-365 360,-371 354,-377 348,-377 348,-377 36,-377 36,-377 30,-377 24,-371 24,-365 24,-365 24,-159 24,-159 24,-153 30,-147 36,-147"/>
<text text-anchor="middle" x="192" y="-361.8" font-family="Arial" font-size="14.00" fill="#000000">membus </text>
<text text-anchor="middle" x="192" y="-346.8" font-family="Arial" font-size="14.00" fill="#000000">: MemBus</text>
</a>
</g>
</g>
<g id="clust7" class="cluster">
<title>cluster_system_membus_badaddr_responder</title>
<g id="a_clust7"><a xlink:title="clk_domain=system.clk_domain&#10;eventq_index=0&#10;fake_mem=false&#10;pio_addr=0&#10;pio_latency=100000&#10;pio_size=8&#10;power_model=&#10;power_state=system.membus.badaddr_responder.power_state&#10;&#13;et_bad_addr=true&#10;&#13;et_data16=65535&#10;&#13;et_data32=4294967295&#10;&#13;et_data64=18446744073709551615&#10;&#13;et_data8=255&#10;system=system&#10;update_data=false&#10;warn_access=">
<path fill="#c7a793" stroke="#000000" d="M44,-155C44,-155 158,-155 158,-155 164,-155 170,-161 170,-167 170,-167 170,-234 170,-234 170,-240 164,-246 158,-246 158,-246 44,-246 44,-246 38,-246 32,-240 32,-234 32,-234 32,-167 32,-167 32,-161 38,-155 44,-155"/>
<text text-anchor="middle" x="101" y="-230.8" font-family="Arial" font-size="14.00" fill="#000000">badaddr_responder </text>
<text text-anchor="middle" x="101" y="-215.8" font-family="Arial" font-size="14.00" fill="#000000">: BadAddr</text>
</a>
</g>
</g>
<g id="clust15" class="cluster">
<title>cluster_system_cpu</title>
<g id="a_clust15"><a xlink:title="LFSTSize=1024&#10;LQEntries=32&#10;LSQCheckLoads=true&#10;LSQDepCheckShift=4&#10;SQEntries=32&#10;SSITSize=1024&#10;activity=0&#10;backComSize=5&#10;branchPred=system.cpu.branchPred&#10;cacheLoadPorts=200&#10;cacheStorePorts=200&#10;checker=Null&#10;clk_domain=system.cpu_clk_domain&#10;commitToDecodeDelay=1&#10;commitToFetchDelay=1&#10;commitToIEWDelay=1&#10;commitToRenameDelay=1&#10;commitWidth=8&#10;cpu_id=0&#10;decodeToFetchDelay=1&#10;decodeToRenameDelay=1&#10;decodeWidth=8&#10;decoder=system.cpu.decoder&#10;dispatchWidth=8&#10;do_checkpoint_insts=true&#10;do_statistics_insts=true&#10;eventq_index=0&#10;fetchBufferSize=64&#10;fetchQueueSize=32&#10;fetchToDecodeDelay=1&#10;fetchTrapLatency=1&#10;fetchWidth=8&#10;forwardComSize=5&#10;fuPool=system.cpu.fuPool&#10;function_trace=false&#10;function_trace_start=0&#10;iewToCommitDelay=1&#10;iewToDecodeDelay=1&#10;iewToFetchDelay=1&#10;iewToRenameDelay=1&#10;interrupts=system.cpu.interrupts&#10;isa=system.cpu.isa&#10;issueToExecuteDelay=1&#10;issueWidth=8&#10;max_insts_all_threads=0&#10;max_insts_any_thread=0&#10;mmu=system.cpu.mmu&#10;&#10;eedsTSO=false&#10;&#10;umIQEntries=64&#10;&#10;umPhysCCRegs=0&#10;&#10;umPhysFloatRegs=256&#10;&#10;umPhysIntRegs=256&#10;&#10;umPhysVecPredRegs=32&#10;&#10;umPhysVecRegs=256&#10;&#10;umROBEntries=192&#10;&#10;umRobs=1&#10;&#10;umThreads=1&#10;power_gating_on_idle=false&#10;power_model=&#10;power_state=system.cpu.power_state&#10;progress_interval=0&#10;pwr_gating_latency=300&#10;&#13;enameToDecodeDelay=1&#10;&#13;enameToFetchDelay=1&#10;&#13;enameToIEWDelay=2&#10;&#13;enameToROBDelay=1&#10;&#13;enameWidth=8&#10;simpoint_start_insts=&#10;smtCommitPolicy=RoundRobin&#10;smtFetchPolicy=RoundRobin&#10;smtIQPolicy=Partitioned&#10;smtIQThreshold=100&#10;smtLSQPolicy=Partitioned&#10;smtLSQThreshold=100&#10;smtNumFetchingThreads=1&#10;smtROBPolicy=Partitioned&#10;smtROBThreshold=100&#10;socket_id=0&#10;squashWidth=8&#10;store_set_clear_period=250000&#10;switched_out=false&#10;syscallRetryLatency=10000&#10;system=system&#10;tracer=system.cpu.tracer&#10;trapLatency=13&#10;wbWidth=8&#10;workload=system.cpu.workload">
<path fill="#bbc6d9" stroke="#000000" d="M968,-147C968,-147 1728,-147 1728,-147 1734,-147 1740,-153 1740,-159 1740,-159 1740,-503 1740,-503 1740,-509 1734,-515 1728,-515 1728,-515 968,-515 968,-515 962,-515 956,-509 956,-503 956,-503 956,-159 956,-159 956,-153 962,-147 968,-147"/>
<text text-anchor="middle" x="1348" y="-499.8" font-family="Arial" font-size="14.00" fill="#000000">cpu </text>
<text text-anchor="middle" x="1348" y="-484.8" font-family="Arial" font-size="14.00" fill="#000000">: RiscvO3CPU</text>
</a>
</g>
</g>
<g id="clust16" class="cluster">
<title>cluster_system_cpu_mmu</title>
<g id="a_clust16"><a xlink:title="dtb=system.cpu.mmu.dtb&#10;eventq_index=0&#10;itb=system.cpu.mmu.itb&#10;pma_checker=system.cpu.mmu.pma_checker&#10;pmp=system.cpu.mmu.pmp">
<path fill="#bab6ae" stroke="#000000" d="M1368,-270C1368,-270 1720,-270 1720,-270 1726,-270 1732,-276 1732,-282 1732,-282 1732,-457 1732,-457 1732,-463 1726,-469 1720,-469 1720,-469 1368,-469 1368,-469 1362,-469 1356,-463 1356,-457 1356,-457 1356,-282 1356,-282 1356,-276 1362,-270 1368,-270"/>
<text text-anchor="middle" x="1544" y="-453.8" font-family="Arial" font-size="14.00" fill="#000000">mmu </text>
<text text-anchor="middle" x="1544" y="-438.8" font-family="Arial" font-size="14.00" fill="#000000">: RiscvMMU</text>
</a>
</g>
</g>
<g id="clust17" class="cluster">
<title>cluster_system_cpu_mmu_itb</title>
<g id="a_clust17"><a xlink:title="entry_type=instruction&#10;eventq_index=0&#10;&#10;ext_level=Null&#10;pma_checker=system.cpu.mmu.pma_checker&#10;pmp=system.cpu.mmu.pmp&#10;size=64&#10;walker=system.cpu.mmu.itb.walker">
<path fill="#9f9c95" stroke="#000000" d="M1376,-278C1376,-278 1528,-278 1528,-278 1534,-278 1540,-284 1540,-290 1540,-290 1540,-411 1540,-411 1540,-417 1534,-423 1528,-423 1528,-423 1376,-423 1376,-423 1370,-423 1364,-417 1364,-411 1364,-411 1364,-290 1364,-290 1364,-284 1370,-278 1376,-278"/>
<text text-anchor="middle" x="1452" y="-407.8" font-family="Arial" font-size="14.00" fill="#000000">itb </text>
<text text-anchor="middle" x="1452" y="-392.8" font-family="Arial" font-size="14.00" fill="#000000">: RiscvTLB</text>
</a>
</g>
</g>
<g id="clust18" class="cluster">
<title>cluster_system_cpu_mmu_itb_walker</title>
<g id="a_clust18"><a xlink:title="clk_domain=system.cpu_clk_domain&#10;eventq_index=0&#10;&#10;um_squash_per_cycle=4&#10;pma_checker=system.cpu.mmu.pma_checker&#10;pmp=system.cpu.mmu.pmp&#10;power_model=&#10;power_state=system.cpu.mmu.itb.walker.power_state&#10;system=system">
<path fill="#84827c" stroke="#000000" d="M1384,-286C1384,-286 1520,-286 1520,-286 1526,-286 1532,-292 1532,-298 1532,-298 1532,-365 1532,-365 1532,-371 1526,-377 1520,-377 1520,-377 1384,-377 1384,-377 1378,-377 1372,-371 1372,-365 1372,-365 1372,-298 1372,-298 1372,-292 1378,-286 1384,-286"/>
<text text-anchor="middle" x="1452" y="-361.8" font-family="Arial" font-size="14.00" fill="#000000">walker </text>
<text text-anchor="middle" x="1452" y="-346.8" font-family="Arial" font-size="14.00" fill="#000000">: RiscvPagetableWalker</text>
</a>
</g>
</g>
<g id="clust20" class="cluster">
<title>cluster_system_cpu_mmu_dtb</title>
<g id="a_clust20"><a xlink:title="entry_type=data&#10;eventq_index=0&#10;&#10;ext_level=Null&#10;pma_checker=system.cpu.mmu.pma_checker&#10;pmp=system.cpu.mmu.pmp&#10;size=64&#10;walker=system.cpu.mmu.dtb.walker">
<path fill="#9f9c95" stroke="#000000" d="M1560,-278C1560,-278 1712,-278 1712,-278 1718,-278 1724,-284 1724,-290 1724,-290 1724,-411 1724,-411 1724,-417 1718,-423 1712,-423 1712,-423 1560,-423 1560,-423 1554,-423 1548,-417 1548,-411 1548,-411 1548,-290 1548,-290 1548,-284 1554,-278 1560,-278"/>
<text text-anchor="middle" x="1636" y="-407.8" font-family="Arial" font-size="14.00" fill="#000000">dtb </text>
<text text-anchor="middle" x="1636" y="-392.8" font-family="Arial" font-size="14.00" fill="#000000">: RiscvTLB</text>
</a>
</g>
</g>
<g id="clust21" class="cluster">
<title>cluster_system_cpu_mmu_dtb_walker</title>
<g id="a_clust21"><a xlink:title="clk_domain=system.cpu_clk_domain&#10;eventq_index=0&#10;&#10;um_squash_per_cycle=4&#10;pma_checker=system.cpu.mmu.pma_checker&#10;pmp=system.cpu.mmu.pmp&#10;power_model=&#10;power_state=system.cpu.mmu.dtb.walker.power_state&#10;system=system">
<path fill="#84827c" stroke="#000000" d="M1568,-286C1568,-286 1704,-286 1704,-286 1710,-286 1716,-292 1716,-298 1716,-298 1716,-365 1716,-365 1716,-371 1710,-377 1704,-377 1704,-377 1568,-377 1568,-377 1562,-377 1556,-371 1556,-365 1556,-365 1556,-298 1556,-298 1556,-292 1562,-286 1568,-286"/>
<text text-anchor="middle" x="1636" y="-361.8" font-family="Arial" font-size="14.00" fill="#000000">walker </text>
<text text-anchor="middle" x="1636" y="-346.8" font-family="Arial" font-size="14.00" fill="#000000">: RiscvPagetableWalker</text>
</a>
</g>
</g>
<g id="clust91" class="cluster">
<title>cluster_system_cpu_icache</title>
<g id="a_clust91"><a xlink:title="addr_ranges=0:18446744073709551615&#10;assoc=8&#10;clk_domain=system.cpu_clk_domain&#10;clusivity=mostly_incl&#10;compressor=Null&#10;data_latency=2&#10;demand_mshr_reserve=1&#10;eventq_index=0&#10;is_read_only=true&#10;max_miss_count=0&#10;move_contractions=true&#10;mshrs=4&#10;power_model=&#10;power_state=system.cpu.icache.power_state&#10;prefetch_on_access=false&#10;prefetch_on_pf_hit=false&#10;prefetcher=system.cpu.icache.prefetcher&#10;&#13;eplace_expansions=true&#10;&#13;eplacement_policy=system.cpu.icache.replacement_policy&#10;&#13;esponse_latency=2&#10;sequential_access=false&#10;size=32768&#10;system=system&#10;tag_latency=2&#10;tags=system.cpu.icache.tags&#10;tgts_per_mshr=20&#10;warmup_percentage=0&#10;write_allocator=Null&#10;write_buffers=8&#10;writeback_clean=true">
<path fill="#bab6ae" stroke="#000000" d="M1170,-155C1170,-155 1332,-155 1332,-155 1338,-155 1344,-161 1344,-167 1344,-167 1344,-234 1344,-234 1344,-240 1338,-246 1332,-246 1332,-246 1170,-246 1170,-246 1164,-246 1158,-240 1158,-234 1158,-234 1158,-167 1158,-167 1158,-161 1164,-155 1170,-155"/>
<text text-anchor="middle" x="1251" y="-230.8" font-family="Arial" font-size="14.00" fill="#000000">icache </text>
<text text-anchor="middle" x="1251" y="-215.8" font-family="Arial" font-size="14.00" fill="#000000">: L1_ICache</text>
</a>
</g>
</g>
<g id="clust99" class="cluster">
<title>cluster_system_cpu_dcache</title>
<g id="a_clust99"><a xlink:title="addr_ranges=0:18446744073709551615&#10;assoc=8&#10;clk_domain=system.cpu_clk_domain&#10;clusivity=mostly_incl&#10;compressor=Null&#10;data_latency=2&#10;demand_mshr_reserve=1&#10;eventq_index=0&#10;is_read_only=false&#10;max_miss_count=0&#10;move_contractions=true&#10;mshrs=4&#10;power_model=&#10;power_state=system.cpu.dcache.power_state&#10;prefetch_on_access=false&#10;prefetch_on_pf_hit=false&#10;prefetcher=system.cpu.dcache.prefetcher&#10;&#13;eplace_expansions=true&#10;&#13;eplacement_policy=system.cpu.dcache.replacement_policy&#10;&#13;esponse_latency=2&#10;sequential_access=false&#10;size=32768&#10;system=system&#10;tag_latency=2&#10;tags=system.cpu.dcache.tags&#10;tgts_per_mshr=20&#10;warmup_percentage=0&#10;write_allocator=Null&#10;write_buffers=8&#10;writeback_clean=false">
<path fill="#bab6ae" stroke="#000000" d="M976,-155C976,-155 1138,-155 1138,-155 1144,-155 1150,-161 1150,-167 1150,-167 1150,-234 1150,-234 1150,-240 1144,-246 1138,-246 1138,-246 976,-246 976,-246 970,-246 964,-240 964,-234 964,-234 964,-167 964,-167 964,-161 970,-155 976,-155"/>
<text text-anchor="middle" x="1057" y="-230.8" font-family="Arial" font-size="14.00" fill="#000000">dcache </text>
<text text-anchor="middle" x="1057" y="-215.8" font-family="Arial" font-size="14.00" fill="#000000">: L1_DCache</text>
</a>
</g>
</g>
<g id="clust107" class="cluster">
<title>cluster_system_cpu_itb_walker_cache</title>
<g id="a_clust107"><a xlink:title="addr_ranges=0:18446744073709551615&#10;assoc=2&#10;clk_domain=system.cpu_clk_domain&#10;clusivity=mostly_incl&#10;compressor=Null&#10;data_latency=2&#10;demand_mshr_reserve=1&#10;eventq_index=0&#10;is_read_only=false&#10;max_miss_count=0&#10;move_contractions=true&#10;mshrs=10&#10;power_model=&#10;power_state=system.cpu.itb_walker_cache.power_state&#10;prefetch_on_access=false&#10;prefetch_on_pf_hit=false&#10;prefetcher=Null&#10;&#13;eplace_expansions=true&#10;&#13;eplacement_policy=system.cpu.itb_walker_cache.replacement_policy&#10;&#13;esponse_latency=2&#10;sequential_access=false&#10;size=1024&#10;system=system&#10;tag_latency=2&#10;tags=system.cpu.itb_walker_cache.tags&#10;tgts_per_mshr=12&#10;warmup_percentage=0&#10;write_allocator=Null&#10;write_buffers=8&#10;writeback_clean=false">
<path fill="#bab6ae" stroke="#000000" d="M1364,-155C1364,-155 1526,-155 1526,-155 1532,-155 1538,-161 1538,-167 1538,-167 1538,-234 1538,-234 1538,-240 1532,-246 1526,-246 1526,-246 1364,-246 1364,-246 1358,-246 1352,-240 1352,-234 1352,-234 1352,-167 1352,-167 1352,-161 1358,-155 1364,-155"/>
<text text-anchor="middle" x="1445" y="-230.8" font-family="Arial" font-size="14.00" fill="#000000">itb_walker_cache </text>
<text text-anchor="middle" x="1445" y="-215.8" font-family="Arial" font-size="14.00" fill="#000000">: PageTableWalkerCache</text>
</a>
</g>
</g>
<g id="clust113" class="cluster">
<title>cluster_system_cpu_dtb_walker_cache</title>
<g id="a_clust113"><a xlink:title="addr_ranges=0:18446744073709551615&#10;assoc=2&#10;clk_domain=system.cpu_clk_domain&#10;clusivity=mostly_incl&#10;compressor=Null&#10;data_latency=2&#10;demand_mshr_reserve=1&#10;eventq_index=0&#10;is_read_only=false&#10;max_miss_count=0&#10;move_contractions=true&#10;mshrs=10&#10;power_model=&#10;power_state=system.cpu.dtb_walker_cache.power_state&#10;prefetch_on_access=false&#10;prefetch_on_pf_hit=false&#10;prefetcher=Null&#10;&#13;eplace_expansions=true&#10;&#13;eplacement_policy=system.cpu.dtb_walker_cache.replacement_policy&#10;&#13;esponse_latency=2&#10;sequential_access=false&#10;size=1024&#10;system=system&#10;tag_latency=2&#10;tags=system.cpu.dtb_walker_cache.tags&#10;tgts_per_mshr=12&#10;warmup_percentage=0&#10;write_allocator=Null&#10;write_buffers=8&#10;writeback_clean=false">
<path fill="#bab6ae" stroke="#000000" d="M1558,-155C1558,-155 1720,-155 1720,-155 1726,-155 1732,-161 1732,-167 1732,-167 1732,-234 1732,-234 1732,-240 1726,-246 1720,-246 1720,-246 1558,-246 1558,-246 1552,-246 1546,-240 1546,-234 1546,-234 1546,-167 1546,-167 1546,-161 1552,-155 1558,-155"/>
<text text-anchor="middle" x="1639" y="-230.8" font-family="Arial" font-size="14.00" fill="#000000">dtb_walker_cache </text>
<text text-anchor="middle" x="1639" y="-215.8" font-family="Arial" font-size="14.00" fill="#000000">: PageTableWalkerCache</text>
</a>
</g>
</g>
<g id="clust120" class="cluster">
<title>cluster_system_iocache</title>
<g id="a_clust120"><a xlink:title="addr_ranges=2147483648:6442450944&#10;assoc=8&#10;clk_domain=system.clk_domain&#10;clusivity=mostly_incl&#10;compressor=Null&#10;data_latency=50&#10;demand_mshr_reserve=1&#10;eventq_index=0&#10;is_read_only=false&#10;max_miss_count=0&#10;move_contractions=true&#10;mshrs=20&#10;power_model=&#10;power_state=system.iocache.power_state&#10;prefetch_on_access=false&#10;prefetch_on_pf_hit=false&#10;prefetcher=Null&#10;&#13;eplace_expansions=true&#10;&#13;eplacement_policy=system.iocache.replacement_policy&#10;&#13;esponse_latency=50&#10;sequential_access=false&#10;size=1024&#10;system=system&#10;tag_latency=50&#10;tags=system.iocache.tags&#10;tgts_per_mshr=12&#10;warmup_percentage=0&#10;write_allocator=Null&#10;write_buffers=8&#10;writeback_clean=false">
<path fill="#bab6ae" stroke="#000000" d="M580,-155C580,-155 742,-155 742,-155 748,-155 754,-161 754,-167 754,-167 754,-234 754,-234 754,-240 748,-246 742,-246 742,-246 580,-246 580,-246 574,-246 568,-240 568,-234 568,-234 568,-167 568,-167 568,-161 574,-155 580,-155"/>
<text text-anchor="middle" x="661" y="-230.8" font-family="Arial" font-size="14.00" fill="#000000">iocache </text>
<text text-anchor="middle" x="661" y="-215.8" font-family="Arial" font-size="14.00" fill="#000000">: IOCache</text>
</a>
</g>
</g>
<g id="clust126" class="cluster">
<title>cluster_system_l2</title>
<g id="a_clust126"><a xlink:title="addr_ranges=0:18446744073709551615&#10;assoc=8&#10;clk_domain=system.cpu_clk_domain&#10;clusivity=mostly_incl&#10;compressor=Null&#10;data_latency=20&#10;demand_mshr_reserve=1&#10;eventq_index=0&#10;is_read_only=false&#10;max_miss_count=0&#10;move_contractions=true&#10;mshrs=20&#10;power_model=&#10;power_state=system.l2.power_state&#10;prefetch_on_access=false&#10;prefetch_on_pf_hit=false&#10;prefetcher=system.l2.prefetcher&#10;&#13;eplace_expansions=true&#10;&#13;eplacement_policy=system.l2.replacement_policy&#10;&#13;esponse_latency=20&#10;sequential_access=false&#10;size=524288&#10;system=system&#10;tag_latency=20&#10;tags=system.l2.tags&#10;tgts_per_mshr=12&#10;warmup_percentage=0&#10;write_allocator=Null&#10;write_buffers=8&#10;writeback_clean=false">
<path fill="#bab6ae" stroke="#000000" d="M774,-155C774,-155 936,-155 936,-155 942,-155 948,-161 948,-167 948,-167 948,-234 948,-234 948,-240 942,-246 936,-246 936,-246 774,-246 774,-246 768,-246 762,-240 762,-234 762,-234 762,-167 762,-167 762,-161 768,-155 774,-155"/>
<text text-anchor="middle" x="855" y="-230.8" font-family="Arial" font-size="14.00" fill="#000000">l2 </text>
<text text-anchor="middle" x="855" y="-215.8" font-family="Arial" font-size="14.00" fill="#000000">: L2Cache</text>
</a>
</g>
</g>
<g id="clust134" class="cluster">
<title>cluster_system_tol2bus</title>
<g id="a_clust134"><a xlink:title="clk_domain=system.cpu_clk_domain&#10;eventq_index=0&#10;forward_latency=0&#10;frontend_latency=1&#10;header_latency=1&#10;max_outstanding_snoops=512&#10;max_routing_table_size=512&#10;point_of_coherency=false&#10;point_of_unification=true&#10;power_model=&#10;power_state=system.tol2bus.power_state&#10;&#13;esponse_latency=1&#10;snoop_filter=system.tol2bus.snoop_filter&#10;snoop_response_latency=1&#10;system=system&#10;use_default_range=false&#10;width=32">
<path fill="#6f798c" stroke="#000000" d="M700,-286C700,-286 936,-286 936,-286 942,-286 948,-292 948,-298 948,-298 948,-365 948,-365 948,-371 942,-377 936,-377 936,-377 700,-377 700,-377 694,-377 688,-371 688,-365 688,-365 688,-298 688,-298 688,-292 694,-286 700,-286"/>
<text text-anchor="middle" x="818" y="-361.8" font-family="Arial" font-size="14.00" fill="#000000">tol2bus </text>
<text text-anchor="middle" x="818" y="-346.8" font-family="Arial" font-size="14.00" fill="#000000">: L2XBar</text>
</a>
</g>
</g>
<g id="clust137" class="cluster">
<title>cluster_system_mem_ctrls0</title>
<g id="a_clust137"><a xlink:title="clk_domain=system.clk_domain&#10;command_window=10000&#10;dram=system.mem_ctrls0.dram&#10;eventq_index=0&#10;mem_sched_policy=frfcfs&#10;min_reads_per_switch=16&#10;min_writes_per_switch=16&#10;power_model=&#10;power_state=system.mem_ctrls0.power_state&#10;qos_policy=Null&#10;qos_priorities=1&#10;qos_priority_escalation=false&#10;qos_q_policy=fifo&#10;qos_requestors= &#160;&#160;&#160;&#160;&#160;&#160;&#160;&#160;&#160;&#160;&#160;&#160;&#160;&#160;&#10;qos_syncro_scheduler=false&#10;qos_turnaround_policy=Null&#10;static_backend_latency=10000&#10;static_frontend_latency=10000&#10;system=system&#10;write_high_thresh_perc=85&#10;write_low_thresh_perc=50">
<path fill="#bab6ae" stroke="#000000" d="M380,-155C380,-155 448,-155 448,-155 454,-155 460,-161 460,-167 460,-167 460,-234 460,-234 460,-240 454,-246 448,-246 448,-246 380,-246 380,-246 374,-246 368,-240 368,-234 368,-234 368,-167 368,-167 368,-161 374,-155 380,-155"/>
<text text-anchor="middle" x="414" y="-230.8" font-family="Arial" font-size="14.00" fill="#000000">mem_ctrls0 </text>
<text text-anchor="middle" x="414" y="-215.8" font-family="Arial" font-size="14.00" fill="#000000">: MemCtrl</text>
</a>
</g>
</g>
<g id="clust141" class="cluster">
<title>cluster_system_mem_ctrls1</title>
<g id="a_clust141"><a xlink:title="clk_domain=system.clk_domain&#10;command_window=10000&#10;dram=system.mem_ctrls1.dram&#10;eventq_index=0&#10;mem_sched_policy=frfcfs&#10;min_reads_per_switch=16&#10;min_writes_per_switch=16&#10;power_model=&#10;power_state=system.mem_ctrls1.power_state&#10;qos_policy=Null&#10;qos_priorities=1&#10;qos_priority_escalation=false&#10;qos_q_policy=fifo&#10;qos_requestors= &#160;&#160;&#160;&#160;&#160;&#160;&#160;&#160;&#160;&#160;&#160;&#160;&#160;&#160;&#10;qos_syncro_scheduler=false&#10;qos_turnaround_policy=Null&#10;static_backend_latency=10000&#10;static_frontend_latency=10000&#10;system=system&#10;write_high_thresh_perc=85&#10;write_low_thresh_perc=50">
<path fill="#bab6ae" stroke="#000000" d="M480,-155C480,-155 548,-155 548,-155 554,-155 560,-161 560,-167 560,-167 560,-234 560,-234 560,-240 554,-246 548,-246 548,-246 480,-246 480,-246 474,-246 468,-240 468,-234 468,-234 468,-167 468,-167 468,-161 474,-155 480,-155"/>
<text text-anchor="middle" x="514" y="-230.8" font-family="Arial" font-size="14.00" fill="#000000">mem_ctrls1 </text>
<text text-anchor="middle" x="514" y="-215.8" font-family="Arial" font-size="14.00" fill="#000000">: MemCtrl</text>
</a>
</g>
</g>
<!-- system_system_port -->
<g id="node1" class="node">
<title>system_system_port</title>
<path fill="#b6b8bc" stroke="#000000" d="M264.5,-523.5C264.5,-523.5 331.5,-523.5 331.5,-523.5 337.5,-523.5 343.5,-529.5 343.5,-535.5 343.5,-535.5 343.5,-547.5 343.5,-547.5 343.5,-553.5 337.5,-559.5 331.5,-559.5 331.5,-559.5 264.5,-559.5 264.5,-559.5 258.5,-559.5 252.5,-553.5 252.5,-547.5 252.5,-547.5 252.5,-535.5 252.5,-535.5 252.5,-529.5 258.5,-523.5 264.5,-523.5"/>
<text text-anchor="middle" x="298" y="-537.8" font-family="Arial" font-size="14.00" fill="#000000">system_port</text>
</g>
<!-- system_membus_cpu_side_ports -->
<g id="node3" class="node">
<title>system_membus_cpu_side_ports</title>
<path fill="#586070" stroke="#000000" d="M256,-294.5C256,-294.5 340,-294.5 340,-294.5 346,-294.5 352,-300.5 352,-306.5 352,-306.5 352,-318.5 352,-318.5 352,-324.5 346,-330.5 340,-330.5 340,-330.5 256,-330.5 256,-330.5 250,-330.5 244,-324.5 244,-318.5 244,-318.5 244,-306.5 244,-306.5 244,-300.5 250,-294.5 256,-294.5"/>
<text text-anchor="middle" x="298" y="-308.8" font-family="Arial" font-size="14.00" fill="#000000">cpu_side_ports</text>
</g>
<!-- system_system_port&#45;&gt;system_membus_cpu_side_ports -->
<g id="edge1" class="edge">
<title>system_system_port&#45;&gt;system_membus_cpu_side_ports</title>
<path fill="none" stroke="black" d="M298,-523.44C298,-484.41 298,-388.35 298,-340.91"/>
<polygon fill="black" stroke="black" points="301.5,-340.76 298,-330.76 294.5,-340.76 301.5,-340.76"/>
</g>
<!-- system_iobus_mem_side_ports -->
<g id="node2" class="node">
<title>system_iobus_mem_side_ports</title>
<path fill="#586070" stroke="#000000" d="M663,-32.5C663,-32.5 757,-32.5 757,-32.5 763,-32.5 769,-38.5 769,-44.5 769,-44.5 769,-56.5 769,-56.5 769,-62.5 763,-68.5 757,-68.5 757,-68.5 663,-68.5 663,-68.5 657,-68.5 651,-62.5 651,-56.5 651,-56.5 651,-44.5 651,-44.5 651,-38.5 657,-32.5 663,-32.5"/>
<text text-anchor="middle" x="710" y="-46.8" font-family="Arial" font-size="14.00" fill="#000000">mem_side_ports</text>
</g>
<!-- system_iocache_mem_side -->
<g id="node20" class="node">
<title>system_iocache_mem_side</title>
<path fill="#94918b" stroke="#000000" d="M588,-163.5C588,-163.5 644,-163.5 644,-163.5 650,-163.5 656,-169.5 656,-175.5 656,-175.5 656,-187.5 656,-187.5 656,-193.5 650,-199.5 644,-199.5 644,-199.5 588,-199.5 588,-199.5 582,-199.5 576,-193.5 576,-187.5 576,-187.5 576,-175.5 576,-175.5 576,-169.5 582,-163.5 588,-163.5"/>
<text text-anchor="middle" x="616" y="-177.8" font-family="Arial" font-size="14.00" fill="#000000">mem_side</text>
</g>
<!-- system_membus_cpu_side_ports&#45;&gt;system_iocache_mem_side -->
<g id="edge2" class="edge">
<title>system_membus_cpu_side_ports&#45;&gt;system_iocache_mem_side</title>
<path fill="none" stroke="black" d="M362.41,-307.11C419.24,-300.69 502.38,-284.89 564,-246 582.32,-234.44 597.21,-214.22 606.3,-199.7"/>
<polygon fill="black" stroke="black" points="361.69,-303.67 352.11,-308.2 362.43,-310.63 361.69,-303.67"/>
</g>
<!-- system_l2_mem_side -->
<g id="node22" class="node">
<title>system_l2_mem_side</title>
<path fill="#94918b" stroke="#000000" d="M782,-163.5C782,-163.5 838,-163.5 838,-163.5 844,-163.5 850,-169.5 850,-175.5 850,-175.5 850,-187.5 850,-187.5 850,-193.5 844,-199.5 838,-199.5 838,-199.5 782,-199.5 782,-199.5 776,-199.5 770,-193.5 770,-187.5 770,-187.5 770,-175.5 770,-175.5 770,-169.5 776,-163.5 782,-163.5"/>
<text text-anchor="middle" x="810" y="-177.8" font-family="Arial" font-size="14.00" fill="#000000">mem_side</text>
</g>
<!-- system_membus_cpu_side_ports&#45;&gt;system_l2_mem_side -->
<g id="edge3" class="edge">
<title>system_membus_cpu_side_ports&#45;&gt;system_l2_mem_side</title>
<path fill="none" stroke="black" d="M362.37,-304.95C480.78,-292.53 724.15,-265.07 758,-246 777.12,-235.23 792.05,-214.44 800.92,-199.58"/>
<polygon fill="black" stroke="black" points="361.93,-301.48 352.35,-306 362.66,-308.44 361.93,-301.48"/>
</g>
<!-- system_membus_mem_side_ports -->
<g id="node4" class="node">
<title>system_membus_mem_side_ports</title>
<path fill="#586070" stroke="#000000" d="M120,-294.5C120,-294.5 214,-294.5 214,-294.5 220,-294.5 226,-300.5 226,-306.5 226,-306.5 226,-318.5 226,-318.5 226,-324.5 220,-330.5 214,-330.5 214,-330.5 120,-330.5 120,-330.5 114,-330.5 108,-324.5 108,-318.5 108,-318.5 108,-306.5 108,-306.5 108,-300.5 114,-294.5 120,-294.5"/>
<text text-anchor="middle" x="167" y="-308.8" font-family="Arial" font-size="14.00" fill="#000000">mem_side_ports</text>
</g>
<!-- system_mem_ctrls0_port -->
<g id="node25" class="node">
<title>system_mem_ctrls0_port</title>
<path fill="#94918b" stroke="#000000" d="M388,-163.5C388,-163.5 418,-163.5 418,-163.5 424,-163.5 430,-169.5 430,-175.5 430,-175.5 430,-187.5 430,-187.5 430,-193.5 424,-199.5 418,-199.5 418,-199.5 388,-199.5 388,-199.5 382,-199.5 376,-193.5 376,-187.5 376,-187.5 376,-175.5 376,-175.5 376,-169.5 382,-163.5 388,-163.5"/>
<text text-anchor="middle" x="403" y="-177.8" font-family="Arial" font-size="14.00" fill="#000000">port</text>
</g>
<!-- system_membus_mem_side_ports&#45;&gt;system_mem_ctrls0_port -->
<g id="edge4" class="edge">
<title>system_membus_mem_side_ports&#45;&gt;system_mem_ctrls0_port</title>
<path fill="none" stroke="black" d="M194.21,-294.31C206.55,-286.67 221.39,-277.68 235,-270 279.76,-244.72 332.49,-217.69 366.77,-200.48"/>
<polygon fill="black" stroke="black" points="368.56,-203.5 375.93,-195.89 365.42,-197.24 368.56,-203.5"/>
</g>
<!-- system_mem_ctrls1_port -->
<g id="node26" class="node">
<title>system_mem_ctrls1_port</title>
<path fill="#94918b" stroke="#000000" d="M488,-163.5C488,-163.5 518,-163.5 518,-163.5 524,-163.5 530,-169.5 530,-175.5 530,-175.5 530,-187.5 530,-187.5 530,-193.5 524,-199.5 518,-199.5 518,-199.5 488,-199.5 488,-199.5 482,-199.5 476,-193.5 476,-187.5 476,-187.5 476,-175.5 476,-175.5 476,-169.5 482,-163.5 488,-163.5"/>
<text text-anchor="middle" x="503" y="-177.8" font-family="Arial" font-size="14.00" fill="#000000">port</text>
</g>
<!-- system_membus_mem_side_ports&#45;&gt;system_mem_ctrls1_port -->
<g id="edge5" class="edge">
<title>system_membus_mem_side_ports&#45;&gt;system_mem_ctrls1_port</title>
<path fill="none" stroke="black" d="M189.33,-294.37C202.03,-285.56 218.62,-275.54 235,-270 331.94,-237.21 377.42,-300.55 464,-246 477.56,-237.45 487.14,-222.3 493.4,-208.94"/>
<polygon fill="black" stroke="black" points="496.66,-210.22 497.39,-199.65 490.23,-207.46 496.66,-210.22"/>
</g>
<!-- system_membus_default -->
<g id="node5" class="node">
<title>system_membus_default</title>
<path fill="#586070" stroke="#000000" d="M44.5,-294.5C44.5,-294.5 77.5,-294.5 77.5,-294.5 83.5,-294.5 89.5,-300.5 89.5,-306.5 89.5,-306.5 89.5,-318.5 89.5,-318.5 89.5,-324.5 83.5,-330.5 77.5,-330.5 77.5,-330.5 44.5,-330.5 44.5,-330.5 38.5,-330.5 32.5,-324.5 32.5,-318.5 32.5,-318.5 32.5,-306.5 32.5,-306.5 32.5,-300.5 38.5,-294.5 44.5,-294.5"/>
<text text-anchor="middle" x="61" y="-308.8" font-family="Arial" font-size="14.00" fill="#000000">default</text>
</g>
<!-- system_membus_badaddr_responder_pio -->
<g id="node6" class="node">
<title>system_membus_badaddr_responder_pio</title>
<path fill="#9f8575" stroke="#000000" d="M52,-163.5C52,-163.5 82,-163.5 82,-163.5 88,-163.5 94,-169.5 94,-175.5 94,-175.5 94,-187.5 94,-187.5 94,-193.5 88,-199.5 82,-199.5 82,-199.5 52,-199.5 52,-199.5 46,-199.5 40,-193.5 40,-187.5 40,-187.5 40,-175.5 40,-175.5 40,-169.5 46,-163.5 52,-163.5"/>
<text text-anchor="middle" x="67" y="-177.8" font-family="Arial" font-size="14.00" fill="#000000">pio</text>
</g>
<!-- system_membus_default&#45;&gt;system_membus_badaddr_responder_pio -->
<g id="edge6" class="edge">
<title>system_membus_default&#45;&gt;system_membus_badaddr_responder_pio</title>
<path fill="none" stroke="black" d="M61.8,-294.37C62.8,-272.78 64.54,-235.41 65.73,-209.85"/>
<polygon fill="black" stroke="black" points="69.23,-209.85 66.2,-199.7 62.24,-209.53 69.23,-209.85"/>
</g>
<!-- system_cpu_icache_port -->
<g id="node7" class="node">
<title>system_cpu_icache_port</title>
<path fill="#959ead" stroke="#000000" d="M1269,-294.5C1269,-294.5 1331,-294.5 1331,-294.5 1337,-294.5 1343,-300.5 1343,-306.5 1343,-306.5 1343,-318.5 1343,-318.5 1343,-324.5 1337,-330.5 1331,-330.5 1331,-330.5 1269,-330.5 1269,-330.5 1263,-330.5 1257,-324.5 1257,-318.5 1257,-318.5 1257,-306.5 1257,-306.5 1257,-300.5 1263,-294.5 1269,-294.5"/>
<text text-anchor="middle" x="1300" y="-308.8" font-family="Arial" font-size="14.00" fill="#000000">icache_port</text>
</g>
<!-- system_cpu_icache_cpu_side -->
<g id="node11" class="node">
<title>system_cpu_icache_cpu_side</title>
<path fill="#94918b" stroke="#000000" d="M1276.5,-163.5C1276.5,-163.5 1323.5,-163.5 1323.5,-163.5 1329.5,-163.5 1335.5,-169.5 1335.5,-175.5 1335.5,-175.5 1335.5,-187.5 1335.5,-187.5 1335.5,-193.5 1329.5,-199.5 1323.5,-199.5 1323.5,-199.5 1276.5,-199.5 1276.5,-199.5 1270.5,-199.5 1264.5,-193.5 1264.5,-187.5 1264.5,-187.5 1264.5,-175.5 1264.5,-175.5 1264.5,-169.5 1270.5,-163.5 1276.5,-163.5"/>
<text text-anchor="middle" x="1300" y="-177.8" font-family="Arial" font-size="14.00" fill="#000000">cpu_side</text>
</g>
<!-- system_cpu_icache_port&#45;&gt;system_cpu_icache_cpu_side -->
<g id="edge7" class="edge">
<title>system_cpu_icache_port&#45;&gt;system_cpu_icache_cpu_side</title>
<path fill="none" stroke="black" d="M1300,-294.37C1300,-272.78 1300,-235.41 1300,-209.85"/>
<polygon fill="black" stroke="black" points="1303.5,-209.7 1300,-199.7 1296.5,-209.7 1303.5,-209.7"/>
</g>
<!-- system_cpu_dcache_port -->
<g id="node8" class="node">
<title>system_cpu_dcache_port</title>
<path fill="#959ead" stroke="#000000" d="M1072.5,-294.5C1072.5,-294.5 1139.5,-294.5 1139.5,-294.5 1145.5,-294.5 1151.5,-300.5 1151.5,-306.5 1151.5,-306.5 1151.5,-318.5 1151.5,-318.5 1151.5,-324.5 1145.5,-330.5 1139.5,-330.5 1139.5,-330.5 1072.5,-330.5 1072.5,-330.5 1066.5,-330.5 1060.5,-324.5 1060.5,-318.5 1060.5,-318.5 1060.5,-306.5 1060.5,-306.5 1060.5,-300.5 1066.5,-294.5 1072.5,-294.5"/>
<text text-anchor="middle" x="1106" y="-308.8" font-family="Arial" font-size="14.00" fill="#000000">dcache_port</text>
</g>
<!-- system_cpu_dcache_cpu_side -->
<g id="node13" class="node">
<title>system_cpu_dcache_cpu_side</title>
<path fill="#94918b" stroke="#000000" d="M1082.5,-163.5C1082.5,-163.5 1129.5,-163.5 1129.5,-163.5 1135.5,-163.5 1141.5,-169.5 1141.5,-175.5 1141.5,-175.5 1141.5,-187.5 1141.5,-187.5 1141.5,-193.5 1135.5,-199.5 1129.5,-199.5 1129.5,-199.5 1082.5,-199.5 1082.5,-199.5 1076.5,-199.5 1070.5,-193.5 1070.5,-187.5 1070.5,-187.5 1070.5,-175.5 1070.5,-175.5 1070.5,-169.5 1076.5,-163.5 1082.5,-163.5"/>
<text text-anchor="middle" x="1106" y="-177.8" font-family="Arial" font-size="14.00" fill="#000000">cpu_side</text>
</g>
<!-- system_cpu_dcache_port&#45;&gt;system_cpu_dcache_cpu_side -->
<g id="edge8" class="edge">
<title>system_cpu_dcache_port&#45;&gt;system_cpu_dcache_cpu_side</title>
<path fill="none" stroke="black" d="M1106,-294.37C1106,-272.78 1106,-235.41 1106,-209.85"/>
<polygon fill="black" stroke="black" points="1109.5,-209.7 1106,-199.7 1102.5,-209.7 1109.5,-209.7"/>
</g>
<!-- system_cpu_mmu_itb_walker_port -->
<g id="node9" class="node">
<title>system_cpu_mmu_itb_walker_port</title>
<path fill="#6a6863" stroke="#000000" d="M1479,-294.5C1479,-294.5 1509,-294.5 1509,-294.5 1515,-294.5 1521,-300.5 1521,-306.5 1521,-306.5 1521,-318.5 1521,-318.5 1521,-324.5 1515,-330.5 1509,-330.5 1509,-330.5 1479,-330.5 1479,-330.5 1473,-330.5 1467,-324.5 1467,-318.5 1467,-318.5 1467,-306.5 1467,-306.5 1467,-300.5 1473,-294.5 1479,-294.5"/>
<text text-anchor="middle" x="1494" y="-308.8" font-family="Arial" font-size="14.00" fill="#000000">port</text>
</g>
<!-- system_cpu_itb_walker_cache_cpu_side -->
<g id="node15" class="node">
<title>system_cpu_itb_walker_cache_cpu_side</title>
<path fill="#94918b" stroke="#000000" d="M1470.5,-163.5C1470.5,-163.5 1517.5,-163.5 1517.5,-163.5 1523.5,-163.5 1529.5,-169.5 1529.5,-175.5 1529.5,-175.5 1529.5,-187.5 1529.5,-187.5 1529.5,-193.5 1523.5,-199.5 1517.5,-199.5 1517.5,-199.5 1470.5,-199.5 1470.5,-199.5 1464.5,-199.5 1458.5,-193.5 1458.5,-187.5 1458.5,-187.5 1458.5,-175.5 1458.5,-175.5 1458.5,-169.5 1464.5,-163.5 1470.5,-163.5"/>
<text text-anchor="middle" x="1494" y="-177.8" font-family="Arial" font-size="14.00" fill="#000000">cpu_side</text>
</g>
<!-- system_cpu_mmu_itb_walker_port&#45;&gt;system_cpu_itb_walker_cache_cpu_side -->
<g id="edge9" class="edge">
<title>system_cpu_mmu_itb_walker_port&#45;&gt;system_cpu_itb_walker_cache_cpu_side</title>
<path fill="none" stroke="black" d="M1494,-294.37C1494,-272.78 1494,-235.41 1494,-209.85"/>
<polygon fill="black" stroke="black" points="1497.5,-209.7 1494,-199.7 1490.5,-209.7 1497.5,-209.7"/>
</g>
<!-- system_cpu_mmu_dtb_walker_port -->
<g id="node10" class="node">
<title>system_cpu_mmu_dtb_walker_port</title>
<path fill="#6a6863" stroke="#000000" d="M1666,-294.5C1666,-294.5 1696,-294.5 1696,-294.5 1702,-294.5 1708,-300.5 1708,-306.5 1708,-306.5 1708,-318.5 1708,-318.5 1708,-324.5 1702,-330.5 1696,-330.5 1696,-330.5 1666,-330.5 1666,-330.5 1660,-330.5 1654,-324.5 1654,-318.5 1654,-318.5 1654,-306.5 1654,-306.5 1654,-300.5 1660,-294.5 1666,-294.5"/>
<text text-anchor="middle" x="1681" y="-308.8" font-family="Arial" font-size="14.00" fill="#000000">port</text>
</g>
<!-- system_cpu_dtb_walker_cache_cpu_side -->
<g id="node17" class="node">
<title>system_cpu_dtb_walker_cache_cpu_side</title>
<path fill="#94918b" stroke="#000000" d="M1664.5,-163.5C1664.5,-163.5 1711.5,-163.5 1711.5,-163.5 1717.5,-163.5 1723.5,-169.5 1723.5,-175.5 1723.5,-175.5 1723.5,-187.5 1723.5,-187.5 1723.5,-193.5 1717.5,-199.5 1711.5,-199.5 1711.5,-199.5 1664.5,-199.5 1664.5,-199.5 1658.5,-199.5 1652.5,-193.5 1652.5,-187.5 1652.5,-187.5 1652.5,-175.5 1652.5,-175.5 1652.5,-169.5 1658.5,-163.5 1664.5,-163.5"/>
<text text-anchor="middle" x="1688" y="-177.8" font-family="Arial" font-size="14.00" fill="#000000">cpu_side</text>
</g>
<!-- system_cpu_mmu_dtb_walker_port&#45;&gt;system_cpu_dtb_walker_cache_cpu_side -->
<g id="edge10" class="edge">
<title>system_cpu_mmu_dtb_walker_port&#45;&gt;system_cpu_dtb_walker_cache_cpu_side</title>
<path fill="none" stroke="black" d="M1681.93,-294.37C1683.1,-272.78 1685.13,-235.41 1686.52,-209.85"/>
<polygon fill="black" stroke="black" points="1690.02,-209.88 1687.07,-199.7 1683.03,-209.5 1690.02,-209.88"/>
</g>
<!-- system_cpu_icache_mem_side -->
<g id="node12" class="node">
<title>system_cpu_icache_mem_side</title>
<path fill="#94918b" stroke="#000000" d="M1178,-163.5C1178,-163.5 1234,-163.5 1234,-163.5 1240,-163.5 1246,-169.5 1246,-175.5 1246,-175.5 1246,-187.5 1246,-187.5 1246,-193.5 1240,-199.5 1234,-199.5 1234,-199.5 1178,-199.5 1178,-199.5 1172,-199.5 1166,-193.5 1166,-187.5 1166,-187.5 1166,-175.5 1166,-175.5 1166,-169.5 1172,-163.5 1178,-163.5"/>
<text text-anchor="middle" x="1206" y="-177.8" font-family="Arial" font-size="14.00" fill="#000000">mem_side</text>
</g>
<!-- system_cpu_dcache_mem_side -->
<g id="node14" class="node">
<title>system_cpu_dcache_mem_side</title>
<path fill="#94918b" stroke="#000000" d="M984,-163.5C984,-163.5 1040,-163.5 1040,-163.5 1046,-163.5 1052,-169.5 1052,-175.5 1052,-175.5 1052,-187.5 1052,-187.5 1052,-193.5 1046,-199.5 1040,-199.5 1040,-199.5 984,-199.5 984,-199.5 978,-199.5 972,-193.5 972,-187.5 972,-187.5 972,-175.5 972,-175.5 972,-169.5 978,-163.5 984,-163.5"/>
<text text-anchor="middle" x="1012" y="-177.8" font-family="Arial" font-size="14.00" fill="#000000">mem_side</text>
</g>
<!-- system_cpu_itb_walker_cache_mem_side -->
<g id="node16" class="node">
<title>system_cpu_itb_walker_cache_mem_side</title>
<path fill="#94918b" stroke="#000000" d="M1372,-163.5C1372,-163.5 1428,-163.5 1428,-163.5 1434,-163.5 1440,-169.5 1440,-175.5 1440,-175.5 1440,-187.5 1440,-187.5 1440,-193.5 1434,-199.5 1428,-199.5 1428,-199.5 1372,-199.5 1372,-199.5 1366,-199.5 1360,-193.5 1360,-187.5 1360,-187.5 1360,-175.5 1360,-175.5 1360,-169.5 1366,-163.5 1372,-163.5"/>
<text text-anchor="middle" x="1400" y="-177.8" font-family="Arial" font-size="14.00" fill="#000000">mem_side</text>
</g>
<!-- system_cpu_dtb_walker_cache_mem_side -->
<g id="node18" class="node">
<title>system_cpu_dtb_walker_cache_mem_side</title>
<path fill="#94918b" stroke="#000000" d="M1566,-163.5C1566,-163.5 1622,-163.5 1622,-163.5 1628,-163.5 1634,-169.5 1634,-175.5 1634,-175.5 1634,-187.5 1634,-187.5 1634,-193.5 1628,-199.5 1622,-199.5 1622,-199.5 1566,-199.5 1566,-199.5 1560,-199.5 1554,-193.5 1554,-187.5 1554,-187.5 1554,-175.5 1554,-175.5 1554,-169.5 1560,-163.5 1566,-163.5"/>
<text text-anchor="middle" x="1594" y="-177.8" font-family="Arial" font-size="14.00" fill="#000000">mem_side</text>
</g>
<!-- system_iocache_cpu_side -->
<g id="node19" class="node">
<title>system_iocache_cpu_side</title>
<path fill="#94918b" stroke="#000000" d="M686.5,-163.5C686.5,-163.5 733.5,-163.5 733.5,-163.5 739.5,-163.5 745.5,-169.5 745.5,-175.5 745.5,-175.5 745.5,-187.5 745.5,-187.5 745.5,-193.5 739.5,-199.5 733.5,-199.5 733.5,-199.5 686.5,-199.5 686.5,-199.5 680.5,-199.5 674.5,-193.5 674.5,-187.5 674.5,-187.5 674.5,-175.5 674.5,-175.5 674.5,-169.5 680.5,-163.5 686.5,-163.5"/>
<text text-anchor="middle" x="710" y="-177.8" font-family="Arial" font-size="14.00" fill="#000000">cpu_side</text>
</g>
<!-- system_iocache_cpu_side&#45;&gt;system_iobus_mem_side_ports -->
<g id="edge11" class="edge">
<title>system_iocache_cpu_side&#45;&gt;system_iobus_mem_side_ports</title>
<path fill="none" stroke="black" d="M710,-153.23C710,-127.7 710,-90.32 710,-68.7"/>
<polygon fill="black" stroke="black" points="706.5,-153.37 710,-163.37 713.5,-153.37 706.5,-153.37"/>
</g>
<!-- system_l2_cpu_side -->
<g id="node21" class="node">
<title>system_l2_cpu_side</title>
<path fill="#94918b" stroke="#000000" d="M880.5,-163.5C880.5,-163.5 927.5,-163.5 927.5,-163.5 933.5,-163.5 939.5,-169.5 939.5,-175.5 939.5,-175.5 939.5,-187.5 939.5,-187.5 939.5,-193.5 933.5,-199.5 927.5,-199.5 927.5,-199.5 880.5,-199.5 880.5,-199.5 874.5,-199.5 868.5,-193.5 868.5,-187.5 868.5,-187.5 868.5,-175.5 868.5,-175.5 868.5,-169.5 874.5,-163.5 880.5,-163.5"/>
<text text-anchor="middle" x="904" y="-177.8" font-family="Arial" font-size="14.00" fill="#000000">cpu_side</text>
</g>
<!-- system_tol2bus_cpu_side_ports -->
<g id="node23" class="node">
<title>system_tol2bus_cpu_side_ports</title>
<path fill="#586070" stroke="#000000" d="M844,-294.5C844,-294.5 928,-294.5 928,-294.5 934,-294.5 940,-300.5 940,-306.5 940,-306.5 940,-318.5 940,-318.5 940,-324.5 934,-330.5 928,-330.5 928,-330.5 844,-330.5 844,-330.5 838,-330.5 832,-324.5 832,-318.5 832,-318.5 832,-306.5 832,-306.5 832,-300.5 838,-294.5 844,-294.5"/>
<text text-anchor="middle" x="886" y="-308.8" font-family="Arial" font-size="14.00" fill="#000000">cpu_side_ports</text>
</g>
<!-- system_tol2bus_cpu_side_ports&#45;&gt;system_cpu_icache_mem_side -->
<g id="edge12" class="edge">
<title>system_tol2bus_cpu_side_ports&#45;&gt;system_cpu_icache_mem_side</title>
<path fill="none" stroke="black" d="M915.89,-288.78C926.73,-281.63 939.41,-274.45 952,-270 1037.24,-239.87 1074.72,-289.46 1154,-246 1173.24,-235.45 1188.15,-214.62 1196.98,-199.69"/>
<polygon fill="black" stroke="black" points="913.89,-285.9 907.63,-294.45 917.85,-291.67 913.89,-285.9"/>
</g>
<!-- system_tol2bus_cpu_side_ports&#45;&gt;system_cpu_dcache_mem_side -->
<g id="edge13" class="edge">
<title>system_tol2bus_cpu_side_ports&#45;&gt;system_cpu_dcache_mem_side</title>
<path fill="none" stroke="black" d="M910.87,-287.19C923.32,-274.93 938.56,-259.78 952,-246 967.15,-230.48 984.09,-212.48 996.1,-199.62"/>
<polygon fill="black" stroke="black" points="908.2,-284.91 903.52,-294.41 913.11,-289.9 908.2,-284.91"/>
</g>
<!-- system_tol2bus_cpu_side_ports&#45;&gt;system_cpu_itb_walker_cache_mem_side -->
<g id="edge14" class="edge">
<title>system_tol2bus_cpu_side_ports&#45;&gt;system_cpu_itb_walker_cache_mem_side</title>
<path fill="none" stroke="black" d="M915.49,-288.54C926.37,-281.3 939.19,-274.12 952,-270 1035.93,-243.03 1269.5,-286.13 1348,-246 1367.67,-235.95 1382.58,-214.79 1391.29,-199.66"/>
<polygon fill="black" stroke="black" points="913.42,-285.71 907.21,-294.3 917.42,-291.46 913.42,-285.71"/>
</g>
<!-- system_tol2bus_cpu_side_ports&#45;&gt;system_cpu_dtb_walker_cache_mem_side -->
<g id="edge15" class="edge">
<title>system_tol2bus_cpu_side_ports&#45;&gt;system_cpu_dtb_walker_cache_mem_side</title>
<path fill="none" stroke="black" d="M915.19,-288.57C926.12,-281.25 939.05,-274.02 952,-270 1077.32,-231.1 1424.58,-304.57 1542,-246 1561.76,-236.14 1576.66,-214.94 1585.33,-199.75"/>
<polygon fill="black" stroke="black" points="913.06,-285.78 906.88,-294.39 917.08,-291.51 913.06,-285.78"/>
</g>
<!-- system_tol2bus_mem_side_ports -->
<g id="node24" class="node">
<title>system_tol2bus_mem_side_ports</title>
<path fill="#586070" stroke="#000000" d="M708,-294.5C708,-294.5 802,-294.5 802,-294.5 808,-294.5 814,-300.5 814,-306.5 814,-306.5 814,-318.5 814,-318.5 814,-324.5 808,-330.5 802,-330.5 802,-330.5 708,-330.5 708,-330.5 702,-330.5 696,-324.5 696,-318.5 696,-318.5 696,-306.5 696,-306.5 696,-300.5 702,-294.5 708,-294.5"/>
<text text-anchor="middle" x="755" y="-308.8" font-family="Arial" font-size="14.00" fill="#000000">mem_side_ports</text>
</g>
<!-- system_tol2bus_mem_side_ports&#45;&gt;system_l2_cpu_side -->
<g id="edge16" class="edge">
<title>system_tol2bus_mem_side_ports&#45;&gt;system_l2_cpu_side</title>
<path fill="none" stroke="black" d="M782.8,-294.37C812.49,-276 855.77,-249.06 859,-246 870.68,-234.94 881.24,-220.42 889.18,-208.07"/>
<polygon fill="black" stroke="black" points="892.18,-209.87 894.48,-199.53 886.23,-206.18 892.18,-209.87"/>
</g>
</g>
</svg>
